<svg width="200" height="150" viewBox="0 0 200 150" fill="none" xmlns="http://www.w3.org/2000/svg">
<path d="M184.185 37.9453C181.446 37.946 178.768 37.016 176.49 35.273C174.212 33.53 172.436 31.0522 171.388 28.1531C170.339 25.254 170.065 22.0638 170.599 18.9859C171.133 15.9081 172.452 13.0809 174.389 10.8619C176.326 8.64289 178.794 7.13181 181.481 6.51977C184.167 5.90772 186.952 6.2222 189.483 7.42343C192.013 8.62466 194.176 10.6587 195.698 13.2682C197.219 15.8777 198.031 18.9456 198.03 22.0837C198.025 26.2887 196.565 30.3199 193.97 33.2933C191.374 36.2667 187.855 37.9397 184.185 37.9453ZM184.185 6.92452C181.568 6.92383 179.009 7.8123 176.832 9.47759C174.656 11.1429 172.959 13.5102 171.957 16.2801C170.955 19.05 170.693 22.0981 171.203 25.0389C171.713 27.9798 172.973 30.6812 174.824 32.8016C176.674 34.922 179.032 36.3661 181.599 36.9513C184.166 37.5366 186.827 37.2366 189.245 36.0893C191.663 34.942 193.73 32.9991 195.184 30.5061C196.638 28.0131 197.414 25.0821 197.414 22.0837C197.41 18.0653 196.015 14.2127 193.535 11.3709C191.055 8.52916 187.692 6.93013 184.185 6.92452Z" fill="#47BDD7"/>
<path d="M183.495 40.1905C183.282 40.1905 183.073 40.1657 182.879 40.1446L182.928 39.4387C183.128 39.4563 183.331 39.4704 183.544 39.481L183.495 40.1905ZM185.698 40.1269L185.642 39.421C185.842 39.3963 186.043 39.3716 186.243 39.3398L186.326 40.0457C186.11 40.0775 185.904 40.1022 185.691 40.1269H185.698ZM180.685 39.774C180.479 39.721 180.275 39.6646 180.069 39.601L180.229 38.9198C180.423 38.9798 180.62 39.0363 180.817 39.0857L180.685 39.774ZM188.486 39.5446L188.319 38.8669C188.513 38.8034 188.708 38.7363 188.899 38.6657L189.09 39.3363C188.883 39.3963 188.683 39.4669 188.48 39.5304L188.486 39.5446ZM177.986 38.7751C177.792 38.6798 177.598 38.581 177.41 38.4786L177.672 37.8398C177.857 37.9386 178.042 38.0339 178.226 38.1257L177.986 38.7751ZM191.135 38.3869L190.864 37.7516C191.046 37.6492 191.225 37.5433 191.403 37.4339L191.711 38.0551C191.505 38.1575 191.317 38.2669 191.129 38.3728L191.135 38.3869ZM175.484 37.2222C175.309 37.088 175.136 36.9504 174.964 36.8127L175.324 36.2374C175.487 36.3715 175.654 36.5057 175.823 36.6327L175.484 37.2222ZM193.554 36.6892L193.19 36.1209C193.35 35.9821 193.511 35.8409 193.671 35.6974L194.053 36.2515C193.887 36.3998 193.72 36.548 193.551 36.6892H193.554ZM173.266 35.1962C173.115 35.0303 172.958 34.8609 172.819 34.688L173.26 34.1974C173.402 34.3633 173.547 34.5256 173.691 34.688L173.266 35.1962ZM195.677 34.5397L195.23 34.0562C195.368 33.8868 195.504 33.7032 195.64 33.5409L196.102 34.0068C195.96 34.1868 195.818 34.3668 195.673 34.5397H195.677ZM171.399 32.7538C171.276 32.5597 171.153 32.3656 171.036 32.1644L171.547 31.7691C171.661 31.9632 171.778 32.1538 171.895 32.3409L171.399 32.7538ZM197.436 31.9914L196.921 31.6067C197.032 31.4126 197.137 31.2149 197.229 31.0173L197.759 31.3702C197.667 31.5855 197.547 31.7903 197.433 31.9914H197.436ZM169.939 29.9726C169.849 29.7573 169.76 29.5384 169.677 29.3196L170.247 29.0302C170.327 29.242 170.413 29.4502 170.5 29.6584L169.939 29.9726ZM198.77 29.122L198.203 28.8502C198.28 28.6349 198.354 28.4196 198.425 28.2008L199.004 28.4514C198.927 28.6772 198.847 28.9031 198.767 29.122H198.77ZM168.937 26.9372C168.882 26.7043 168.83 26.4713 168.783 26.2313L169.381 26.0725C169.427 26.2984 169.48 26.5207 169.532 26.7431L168.937 26.9372ZM199.632 26.0266L199.016 25.8713C199.059 25.6454 199.099 25.4195 199.133 25.1901L199.749 25.3172C199.716 25.5536 199.676 25.7901 199.629 26.0266H199.632ZM168.429 23.7359C168.408 23.4995 168.395 23.2595 168.383 23.03L168.999 22.9948C168.999 23.2277 169.024 23.4571 169.042 23.7007L168.429 23.7359ZM199.993 22.8006L199.377 22.7724C199.377 22.543 199.377 22.3136 199.377 22.0665V21.9924H199.993V22.0594C200.005 22.3241 199.999 22.5642 199.993 22.8042V22.8006ZM169.036 20.5594L168.42 20.4959C168.438 20.2559 168.46 20.0159 168.485 19.79L169.101 19.8782C169.076 20.0935 169.055 20.3229 169.036 20.5594ZM199.229 19.5923C199.201 19.3629 199.17 19.1335 199.133 18.9076L199.749 18.7805C199.79 19.017 199.823 19.2535 199.854 19.4864L199.229 19.5923ZM169.511 17.4746L168.916 17.2911C168.971 17.0581 169.033 16.8252 169.095 16.5852L169.683 16.8005C169.631 17.0299 169.566 17.2593 169.514 17.4817L169.511 17.4746ZM198.603 16.5464C198.539 16.324 198.471 16.1087 198.4 15.8934L198.976 15.6428C199.05 15.864 199.121 16.0899 199.189 16.3205L198.603 16.5464ZM170.466 14.5593L169.911 14.2557C170.003 14.0369 170.096 13.8216 170.194 13.6098L170.74 13.9416C170.644 14.1428 170.555 14.3475 170.466 14.5593ZM197.513 13.6981C197.414 13.4969 197.316 13.2957 197.205 13.098L197.731 12.7451C197.84 12.9498 197.943 13.158 198.04 13.3698L197.513 13.6981ZM171.861 11.8768L171.362 11.4639C171.485 11.2698 171.612 11.0756 171.744 10.8886L172.228 11.3227C172.095 11.5027 171.981 11.6862 171.861 11.8733V11.8768ZM195.991 11.1145C195.864 10.9345 195.735 10.7615 195.6 10.5815L196.062 10.1156C196.2 10.2956 196.336 10.4686 196.471 10.6662L195.991 11.1145ZM173.651 9.52267L173.223 9.01442C173.377 8.84854 173.531 8.68265 173.688 8.52382L174.095 9.05325C173.944 9.20148 173.796 9.36031 173.651 9.51914V9.52267ZM194.093 8.87324L193.625 8.43205L194.007 7.87792C194.173 8.02969 194.333 8.18146 194.493 8.34029L194.093 8.87324ZM175.792 7.56733L175.45 6.9779C175.626 6.84731 175.802 6.71672 175.983 6.58966L176.292 7.1932C176.101 7.3132 175.943 7.44027 175.792 7.56733ZM191.89 7.05555C191.718 6.93555 191.542 6.8226 191.363 6.7026L191.653 6.08141C191.838 6.19436 192.023 6.31436 192.204 6.43436L191.89 7.05555ZM178.168 6.08847L177.924 5.43904C178.119 5.34375 178.313 5.25198 178.507 5.16727L178.729 5.82376C178.541 5.90141 178.353 5.98964 178.168 6.08847ZM189.41 5.73552C189.222 5.65434 189.028 5.58022 188.837 5.50963L189.025 4.8355C189.225 4.90962 189.425 4.98727 189.623 5.07197L189.41 5.73552ZM180.756 5.12139L180.617 4.43314C180.823 4.37902 181.028 4.3296 181.233 4.2849L181.344 4.9908C181.15 5.00844 180.953 5.05786 180.756 5.10727V5.12139ZM186.776 4.9308C186.579 4.89197 186.378 4.85667 186.178 4.82491L186.258 4.11901C186.468 4.15078 186.674 4.18607 186.874 4.22843L186.776 4.9308ZM183.455 4.67667L183.427 3.97077C183.636 3.97077 183.846 3.95312 184.043 3.95312V4.65902C183.858 4.67667 183.655 4.67667 183.455 4.67667Z" fill="#644545" fill-opacity="0.99"/>
<path d="M182.059 31.8921H186.326V24.519H192.765V19.6307H186.326V12.2576H182.059V19.6307H175.623V24.519H182.059V31.8921Z" fill="#44BFDB"/>
<path d="M24.4253 79.6851C22.1198 83.2213 19.1779 86.1486 15.7988 88.2689C12.4203 86.1476 9.47861 83.2205 7.1723 79.6851C4.13455 75.0756 4.28243 67.8578 8.63265 66.2978C13.4296 64.5718 15.7896 72.8662 15.7896 72.8662C15.7896 72.8662 18.1865 64.5189 22.9649 66.2978C27.2936 67.9143 27.4661 75.0756 24.4253 79.6851Z" fill="#03254E"/>
<path d="M12.3944 84.6268L11.085 78.376L10.2285 80.5784H4.9325V79.8725H9.82803L11.2606 76.1842L12.2804 81.062L13.7284 70.957L15.0039 78.9513L16.0114 75.6124L17.6011 81.0761L17.9523 79.869H26.6528V80.5749H18.396L17.6011 83.3032L15.9991 77.8078L14.8191 81.7185L13.7592 75.0901L12.3944 84.6268Z" fill="#44BFDB"/>
<path d="M15.8019 91.2375C13.0628 91.2382 10.385 90.3083 8.10717 88.5655C5.82938 86.8226 4.05389 84.3451 3.00525 81.4462C1.95661 78.5473 1.68192 75.3572 2.21592 72.2795C2.74993 69.2017 4.06864 66.3745 6.00527 64.1554C7.94191 61.9362 10.4095 60.4249 13.0959 59.8124C15.7824 59.2 18.567 59.514 21.0977 60.7147C23.6284 61.9153 25.7914 63.9488 27.3133 66.5579C28.8351 69.167 29.6474 72.2344 29.6474 75.3724C29.6433 79.578 28.1834 83.6102 25.5878 86.5843C22.9923 89.5585 19.473 91.2319 15.8019 91.2375ZM15.8019 60.2168C13.1845 60.2161 10.6257 61.1046 8.44918 62.7701C6.27265 64.4355 4.57614 66.803 3.57423 69.5731C2.57231 72.3433 2.31001 75.3916 2.82049 78.3325C3.33096 81.2734 4.59129 83.9748 6.44207 86.0951C8.29284 88.2154 10.6509 89.6592 13.218 90.244C15.7852 90.8288 18.446 90.5283 20.8641 89.3805C23.2821 88.2327 25.3487 86.2892 26.8024 83.7957C28.2562 81.3023 29.0318 78.3709 29.0312 75.3724C29.0263 71.3546 27.631 67.503 25.151 64.6619C22.6711 61.8209 19.309 60.2224 15.8019 60.2168Z" fill="#644545" fill-opacity="0.99"/>
<path d="M15.1056 93.4819L14.4894 93.4361L14.5387 92.7302C14.7421 92.7514 14.9423 92.7655 15.1549 92.7761L15.1056 93.4819ZM17.3115 93.4149L17.253 92.709C17.4532 92.6878 17.6566 92.6596 17.8692 92.6313L17.9493 93.3372C17.7428 93.3655 17.521 93.3937 17.3115 93.4149ZM12.2958 93.0619C12.0925 93.009 11.8861 92.949 11.6797 92.889L11.8368 92.2078L12.4283 92.3737L12.2958 93.0619ZM20.0966 92.8325L19.9303 92.1513C20.1275 92.0878 20.3185 92.0207 20.5095 91.9501L20.7036 92.6208C20.5156 92.6843 20.3 92.7549 20.0966 92.8219V92.8325ZM9.59697 92.0631C9.40287 91.9678 9.21186 91.869 9.02084 91.7631L9.2858 91.1278C9.4686 91.2266 9.65345 91.3219 9.84036 91.4137L9.59697 92.0631ZM22.7462 91.6713L22.4751 91.0395C22.6569 90.9372 22.8356 90.8313 23.0142 90.7219L23.3223 91.3431C23.1221 91.4454 22.9341 91.5549 22.7462 91.6607V91.6713ZM7.09837 90.5207C6.92276 90.3901 6.75023 90.2525 6.5777 90.1113L6.93816 89.5395C7.10145 89.6736 7.2709 89.8042 7.43727 89.9313L7.09837 90.5207ZM25.1678 89.9913L24.8042 89.423C24.9665 89.2866 25.1267 89.1454 25.2849 88.9995L25.67 89.5501C25.5067 89.6913 25.3372 89.836 25.1678 89.9807V89.9913ZM4.88013 88.4983C4.72917 88.3324 4.57204 88.163 4.4334 87.9901L4.87705 87.4995C5.01569 87.6653 5.16049 87.8277 5.30529 87.9865L4.88013 88.4983ZM27.2936 87.8312L26.8469 87.3442C26.9855 87.1747 27.1211 86.9912 27.2535 86.8324L27.7188 87.2947C27.5801 87.4783 27.4384 87.6548 27.2936 87.8312ZM3.01311 86.0453C2.88987 85.8512 2.76972 85.6535 2.65265 85.4559L3.16407 85.0606C3.27499 85.2547 3.39206 85.4418 3.51221 85.6288L3.01311 86.0453ZM29.0497 85.2829L28.5352 84.8947C28.6461 84.7006 28.7539 84.5064 28.8587 84.3053L29.3855 84.6582C29.2777 84.877 29.1668 85.0782 29.0497 85.2829ZM1.55585 83.2641C1.46342 83.0488 1.37408 82.8299 1.29089 82.6076L1.85778 82.3252C1.93788 82.537 2.02106 82.7488 2.11041 82.957L1.55585 83.2641ZM30.3745 82.4135L29.8076 82.1382C29.8846 81.9264 29.9616 81.7111 30.0325 81.4923L30.6086 81.7393C30.5439 81.9723 30.4669 82.1911 30.3745 82.4135ZM0.545318 80.2252C0.489862 79.9899 0.437486 79.7546 0.388192 79.5193L0.988965 79.3569C1.03518 79.5828 1.08447 79.8087 1.13993 80.031L0.545318 80.2252ZM31.2371 79.3146L30.621 79.1628C30.6641 78.9369 30.7041 78.711 30.7411 78.4816L31.3573 78.6087C31.3326 78.8451 31.2988 79.0816 31.2464 79.3146H31.2371ZM0.0462138 77.031C0.0277285 76.7957 0.0123236 76.5604 0 76.3251L0.616178 76.2898C0.616178 76.5192 0.640825 76.7521 0.65931 76.9957L0.0462138 77.031ZM31.6068 76.0957L30.9907 76.0674C30.9907 75.838 30.9907 75.6051 30.9907 75.3615V75.2874H31.6068V75.358C31.6222 75.6192 31.6068 75.8557 31.6068 76.0957ZM0.653148 73.8544L0.0369703 73.7909C0.0554557 73.5509 0.0770223 73.3109 0.10475 73.085L0.720928 73.1732C0.6932 73.385 0.671634 73.6144 0.653148 73.8544ZM30.8459 72.8873C30.8181 72.6544 30.7842 72.4285 30.7473 72.1814L31.3635 72.0544C31.4004 72.2909 31.4343 72.5273 31.4651 72.7603L30.8459 72.8873ZM1.12761 70.7697L0.532994 70.5826C0.58845 70.3496 0.646987 70.1202 0.711686 69.8767L1.29705 70.0885C1.2416 70.3249 1.18614 70.5508 1.13377 70.7732L1.12761 70.7697ZM30.2174 69.8379C30.1527 69.619 30.0849 69.4002 30.014 69.1849L30.5901 68.9343C30.6641 69.1602 30.735 69.3861 30.8027 69.6155L30.2174 69.8379ZM2.08576 67.8543L1.52812 67.5508C1.62055 67.3319 1.71606 67.1166 1.81464 66.9013L2.35688 67.2331C2.26445 67.4308 2.17203 67.639 2.08576 67.8543ZM29.1421 66.986C29.0466 66.7813 28.945 66.5837 28.834 66.386L29.3609 66.0331C29.4718 66.2413 29.5765 66.4496 29.669 66.6578L29.1421 66.986ZM3.47832 65.1648L2.97922 64.7519C3.10554 64.5542 3.23185 64.3636 3.36125 64.173L3.84495 64.6107C3.71863 64.7907 3.59848 64.9778 3.47832 65.1648ZM27.6017 64.3989C27.4723 64.2189 27.3429 64.046 27.2104 63.8695L27.6725 63.4036C27.8122 63.5848 27.9478 63.7683 28.0792 63.9542L27.6017 64.3989ZM5.25908 62.8106L4.83391 62.2989C4.98591 62.1342 5.13995 61.9718 5.29605 61.8118L5.72737 62.3377C5.56409 62.493 5.41928 62.6483 5.26832 62.8106H5.25908ZM25.7008 62.1612C25.5467 62.0094 25.3927 61.8612 25.2325 61.7165L25.6176 61.1659C25.7809 61.3141 25.9442 61.4694 26.1044 61.6247L25.7008 62.1612ZM7.38489 60.8553L7.04291 60.2694C7.21852 60.1353 7.39413 60.0082 7.57591 59.8812L7.884 60.4847C7.73303 60.6047 7.57591 60.7282 7.39414 60.8553H7.38489ZM23.4856 60.3435C23.31 60.2271 23.1344 60.1141 22.9557 59.9906L23.2453 59.3659C23.4302 59.4823 23.615 59.5988 23.7968 59.7188L23.4856 60.3435ZM9.78799 59.3835L9.54151 58.7341L10.1238 58.4623L10.3456 59.1223C10.1577 59.1894 9.97284 59.2776 9.78799 59.3835ZM21.0271 59.0306C20.8391 58.9529 20.6481 58.8753 20.454 58.8047L20.642 58.1341C20.8422 58.2082 21.0425 58.2858 21.2397 58.367L21.0271 59.0306ZM12.3729 58.42L12.2342 57.7141L12.8504 57.5658L12.9644 58.2717C12.7672 58.2999 12.57 58.3458 12.3729 58.3988V58.42ZM18.396 58.2258C18.1957 58.187 17.9955 58.1552 17.7798 58.1235L17.8599 57.4176C18.0694 57.4493 18.2758 57.4846 18.4761 57.5235L18.396 58.2258ZM15.0717 57.9717L15.044 57.2658C15.2535 57.2658 15.463 57.2658 15.6756 57.2446V57.9505C15.4753 57.9717 15.2781 57.9717 15.0717 57.9717Z" fill="#644545" fill-opacity="0.99"/>
<path d="M177.429 99.3729C177.276 94.9633 177.328 90.5476 177.586 86.1444C178.155 77.0648 179.365 68.0528 181.203 59.1967C182.213 54.2095 183.455 49.3141 184.749 44.4081C184.789 44.2599 184.992 44.3022 184.958 44.4575C180.953 61.7203 177.672 79.5372 177.897 97.4846C177.962 102.507 178.47 107.441 178.886 112.432C178.886 112.566 178.704 112.619 178.676 112.481C177.851 108.211 177.583 103.735 177.429 99.3729Z" fill="#44BFDB" fill-opacity="0.5"/>
<path d="M184.958 44.4573C184.958 44.4573 191.021 62.0871 189.657 66.2307C188.292 70.3743 185.5 71.2603 185.5 71.2603C185.5 71.2603 189.197 77.3275 186.619 83.017C184.04 88.7065 178.266 88.4383 177.884 94.8902C177.891 94.8902 177.57 67.9108 184.958 44.4573Z" fill="#44BFDB" fill-opacity="0.5"/>
<path d="M178.565 83.7373C178.555 83.7079 178.555 83.6749 178.565 83.6455C179.416 71.6453 181.273 59.705 184.447 48.1777C184.447 48.1702 184.449 48.163 184.454 48.1577C184.459 48.1524 184.465 48.1494 184.471 48.1494C184.478 48.1494 184.484 48.1524 184.489 48.1577C184.493 48.163 184.496 48.1702 184.496 48.1777C183.294 53.3331 182.233 58.5179 181.31 63.7321C182.125 62.8475 183.121 62.2115 184.206 61.8827C184.21 61.8827 184.214 61.8845 184.217 61.8879C184.22 61.8912 184.222 61.8956 184.222 61.9003C184.222 61.905 184.22 61.9095 184.217 61.9128C184.214 61.9161 184.21 61.918 184.206 61.918C183.085 62.4721 182.013 63.118 181.218 64.2051C181.042 65.2286 180.87 66.2487 180.703 67.2722C182.059 65.5392 183.938 64.678 185.818 63.8592C185.845 63.8592 185.858 63.8945 185.833 63.9086C183.874 64.8192 181.923 65.9981 180.596 67.9287C180.131 70.8558 179.721 73.7971 179.363 76.7524C180.343 75.5772 181.6 74.7522 182.98 74.3771C183.023 74.3771 183.045 74.4371 183.002 74.4512C181.579 74.9233 180.305 75.8574 179.335 77.1407C179.335 77.1407 179.335 77.1407 179.314 77.1619C179.191 78.1995 179.077 79.2337 178.972 80.2749C179.728 79.5354 180.583 78.9396 181.504 78.5101C181.529 78.5101 181.541 78.5419 181.504 78.5525C180.566 79.0168 179.706 79.668 178.966 80.4761C178.966 80.4761 178.944 80.4761 178.932 80.4937C178.83 81.4784 178.732 82.4667 178.642 83.455C180.01 81.566 181.783 80.1173 183.787 79.2513C183.827 79.2337 183.846 79.3007 183.809 79.3219C181.829 80.3198 180.09 81.8531 178.741 83.7903C178.726 83.8119 178.705 83.8279 178.682 83.8361C178.659 83.8443 178.635 83.8443 178.611 83.8361C178.482 85.3491 178.367 86.868 178.266 88.3927C178.266 88.4139 178.236 88.4174 178.236 88.3927C178.334 86.8539 178.444 85.3021 178.565 83.7373Z" fill="#44BFDB" fill-opacity="0.5"/>
<path d="M183.421 60.1601C184.471 59.3307 185.808 58.9777 187.062 58.8577C187.066 58.8561 187.07 58.8556 187.074 58.8562C187.078 58.8568 187.082 58.8584 187.085 58.861C187.088 58.8636 187.091 58.8671 187.093 58.8711C187.095 58.8752 187.096 58.8796 187.096 58.8842C187.096 58.8888 187.095 58.8932 187.093 58.8973C187.091 58.9013 187.088 58.9048 187.085 58.9074C187.082 58.91 187.078 58.9116 187.074 58.9122C187.07 58.9128 187.066 58.9123 187.062 58.9107C185.759 59.133 184.662 59.673 183.461 60.2589C183.45 60.261 183.439 60.259 183.43 60.2532C183.42 60.2475 183.412 60.2383 183.408 60.227C183.403 60.2158 183.402 60.2032 183.404 60.1911C183.407 60.179 183.412 60.1681 183.421 60.1601Z" fill="#44BFDB" fill-opacity="0.5"/>
<path d="M182.684 78.8242C183.529 78.2746 184.458 77.9151 185.42 77.7654C185.451 77.7654 185.454 77.8183 185.42 77.8219C184.479 78.0376 183.568 78.4035 182.715 78.9089C182.681 78.9195 182.647 78.8489 182.684 78.8242Z" fill="#44BFDB" fill-opacity="0.5"/>
<path d="M161.488 66.5167C164.053 68.5477 166.407 70.9065 168.506 73.5474C170.674 76.3388 172.348 79.5861 173.436 83.1088C175.735 90.4508 176.971 98.174 177.096 105.973C177.171 110.294 176.808 114.61 176.014 118.834C176.006 118.862 175.989 118.886 175.966 118.901C175.944 118.915 175.918 118.92 175.892 118.915C175.867 118.909 175.844 118.893 175.828 118.87C175.812 118.847 175.804 118.818 175.805 118.788C176.794 111.335 176.757 103.75 175.694 96.3091C174.653 89.0313 173.02 81.0829 168.968 75.1569C166.766 71.9274 164.017 69.3897 161.303 66.7637C161.158 66.6261 161.343 66.4002 161.488 66.5167Z" fill="#44BFDB" fill-opacity="0.5"/>
<path d="M176.202 100.725C174.743 98.0204 173.028 95.5087 171.088 93.235C168.053 89.7584 165.499 87.2913 165.105 84.9936C164.71 82.6959 168.143 81.0053 168.143 81.0053C168.143 81.0053 163.946 81.8665 162.797 79.8476C161.648 77.8287 161.094 66.1426 161.094 66.1426C161.094 66.1426 168.731 72.3898 172.289 81.1429C175.848 89.8961 176.202 100.725 176.202 100.725Z" fill="#44BFDB" fill-opacity="0.5"/>
<path d="M163.823 77.1051C164.325 77.0234 164.833 77.0033 165.339 77.0451C165.401 77.0451 165.398 77.1686 165.339 77.1686C164.834 77.1863 164.332 77.1439 163.829 77.1686C163.777 77.1792 163.777 77.1121 163.823 77.1051Z" fill="#44BFDB" fill-opacity="0.5"/>
<path d="M169.323 88.4453C170.129 88.4668 170.925 88.6496 171.676 88.9853C171.695 88.9853 171.676 89.0312 171.676 89.0242C170.897 88.8124 170.111 88.7277 169.326 88.5794C169.249 88.5653 169.252 88.4453 169.323 88.4453Z" fill="#44BFDB" fill-opacity="0.5"/>
<path d="M170.965 84.5275C171.3 84.5245 171.634 84.5588 171.963 84.6299C171.997 84.6299 171.997 84.7005 171.963 84.7005C171.629 84.7199 171.293 84.7022 170.962 84.6475C170.955 84.6473 170.948 84.6455 170.942 84.6423C170.936 84.6391 170.93 84.6344 170.925 84.6287C170.916 84.6171 170.911 84.6017 170.911 84.5858C170.911 84.5699 170.917 84.5548 170.927 84.5439C170.937 84.5329 170.951 84.5271 170.965 84.5275Z" fill="#44BFDB" fill-opacity="0.5"/>
<path d="M198.591 78.9229C196.11 79.8885 193.733 81.1732 191.505 82.7524C189.19 84.4389 187.182 86.6241 185.593 89.1867C182.247 94.5184 179.686 100.442 178.011 106.721C177.078 110.198 176.501 113.787 176.292 117.416C176.289 117.443 176.296 117.47 176.311 117.491C176.326 117.512 176.348 117.526 176.372 117.529C176.395 117.531 176.419 117.523 176.438 117.506C176.456 117.489 176.468 117.464 176.47 117.437C177.172 111.142 178.732 105.012 181.092 99.2705C183.408 93.6444 186.329 87.6584 190.803 83.9313C193.237 81.9018 195.972 80.5747 198.702 79.17C198.831 79.0959 198.73 78.8664 198.591 78.9229Z" fill="#44BFDB" fill-opacity="0.5"/>
<path d="M179.779 102.708C181.506 100.905 183.401 99.3264 185.43 97.9998C188.584 95.9915 191.151 94.6715 191.933 92.9173C192.716 91.1631 190.273 88.8831 190.273 88.8831C190.273 88.8831 193.495 90.6937 194.832 89.3631C196.17 88.0325 198.976 78.7217 198.976 78.7217C198.976 78.7217 191.536 81.757 186.89 87.8984C182.244 94.0397 179.779 102.708 179.779 102.708Z" fill="#44BFDB" fill-opacity="0.5"/>
<path d="M180.164 100.788C183.886 92.7869 188.852 85.5479 195.655 80.7725C193.879 82.0812 192.212 83.5758 190.676 85.2373C192.062 85.1494 193.444 85.483 194.681 86.2043C194.684 86.2057 194.686 86.2077 194.688 86.2102C194.69 86.2126 194.692 86.2154 194.693 86.2186C194.694 86.2217 194.694 86.225 194.694 86.2283C194.694 86.2316 194.693 86.2349 194.692 86.2379C194.691 86.2409 194.689 86.2436 194.687 86.2459C194.685 86.2481 194.683 86.2499 194.68 86.251C194.677 86.2521 194.674 86.2527 194.671 86.2525C194.668 86.2524 194.666 86.2516 194.663 86.2502C193.348 85.6867 191.951 85.4171 190.547 85.4561C190.53 85.4557 190.513 85.4481 190.501 85.4349C190.257 85.6961 190.02 85.9643 189.783 86.2326C190.502 86.2714 191.218 86.38 191.921 86.5573C191.925 86.5573 191.929 86.5592 191.932 86.5625C191.935 86.5658 191.936 86.5703 191.936 86.575C191.936 86.5796 191.935 86.5841 191.932 86.5874C191.929 86.5907 191.925 86.5926 191.921 86.5926C191.177 86.4311 190.42 86.3589 189.663 86.3773C188.42 87.8236 187.248 89.3483 186.154 90.9445C186.654 90.8631 187.163 90.9052 187.648 91.068C187.655 91.068 187.662 91.0713 187.667 91.0773C187.673 91.0833 187.676 91.0913 187.676 91.0998C187.676 91.1082 187.673 91.1163 187.667 91.1222C187.662 91.1282 187.655 91.1315 187.648 91.1315C187.118 91.0634 186.583 91.0551 186.052 91.1068C185.849 91.4033 185.642 91.6998 185.436 91.9998C186.955 91.8936 188.48 92.064 189.952 92.5045C189.974 92.5045 189.968 92.5469 189.952 92.5433C188.431 92.2002 186.878 92.0816 185.331 92.1904C185.14 92.4798 184.961 92.7763 184.773 93.0657C185.68 93.0401 186.585 93.1589 187.463 93.4186C187.47 93.4186 187.477 93.422 187.483 93.4279C187.488 93.4339 187.491 93.442 187.491 93.4504C187.491 93.4588 187.488 93.4669 187.483 93.4729C187.477 93.4788 187.47 93.4822 187.463 93.4822C186.553 93.2552 185.62 93.1709 184.69 93.2316C183.889 94.4951 183.121 95.7834 182.386 97.0964C182.779 97.0153 183.184 97.0432 183.566 97.1775C183.57 97.1775 183.574 97.1794 183.577 97.1827C183.579 97.186 183.581 97.1905 183.581 97.1952C183.581 97.1999 183.579 97.2044 183.577 97.2077C183.574 97.211 183.57 97.2128 183.566 97.2128C183.14 97.1761 182.711 97.1999 182.29 97.2834C181.627 98.4599 180.988 99.6517 180.374 100.859C180.26 100.972 180.106 100.894 180.164 100.788Z" fill="#44BFDB"/>
<path d="M185.959 94.1528C186.688 94.0942 187.421 94.196 188.116 94.4528C188.135 94.4528 188.116 94.4952 188.116 94.4916C187.403 94.3538 186.682 94.2689 185.959 94.2375C185.913 94.2375 185.904 94.1563 185.959 94.1528Z" fill="#644545" fill-opacity="0.99"/>
<path d="M192.445 84.4004C192.778 84.3715 193.112 84.394 193.44 84.4674C193.48 84.4674 193.468 84.538 193.44 84.5345C193.113 84.4957 192.79 84.5062 192.463 84.4956C192.453 84.4964 192.443 84.4929 192.435 84.4858C192.426 84.4787 192.421 84.4685 192.418 84.4571C192.416 84.4456 192.418 84.4335 192.422 84.4231C192.427 84.4127 192.435 84.4047 192.445 84.4004Z" fill="#644545" fill-opacity="0.99"/>
<path d="M170.182 129.299H186.976L184.582 109.206L183.969 104.053H173.189L172.576 109.206L170.182 129.299Z" fill="#03254E"/>
<path d="M172.576 109.206H184.582L183.969 104.053H173.189L172.576 109.206Z" fill="#03254E"/>
<path d="M171.649 106.629H185.513V102.267H171.649V106.629Z" fill="#644545" fill-opacity="0.99"/>
<path d="M8.89148 129.3L31.6685 129.215L54.4455 129.183L100.003 129.123L145.56 129.183L168.337 129.215L191.114 129.3L168.337 129.388L145.56 129.416L100.003 129.476L54.4455 129.416L31.6685 129.384L8.89148 129.3Z" fill="#263238"/>
<path d="M100.003 150C150.512 150 191.459 145.849 191.459 140.728C191.459 135.608 150.512 131.456 100.003 131.456C49.4927 131.456 8.54639 135.608 8.54639 140.728C8.54639 145.849 49.4927 150 100.003 150Z" fill="#EBEBEB"/>
<path d="M171.766 1.92017H28.2395V119.029H171.766V1.92017Z" fill="#03254E"/>
<path d="M164.828 9.5332H35.1776V93.6269H164.828V9.5332Z" fill="#FFFCFC"/>
<path d="M171.766 101.752H28.2395V119.025H171.766V101.752Z" fill="#EBEBEB"/>
<path d="M129.299 135.709H70.7095V140.142H129.299V135.709Z" fill="#C7C7C7"/>
<path d="M122.321 135.712H77.6847L78.8185 128.022L78.8739 127.658L78.9787 126.938L79.031 126.575L79.142 125.851L79.1543 125.742L79.1943 125.491L79.3022 124.767L79.3545 124.404L80.1463 119.032H119.856L120.605 124.1L120.645 124.344L120.768 125.184L120.802 125.427L120.848 125.742L120.928 126.267L120.962 126.515L121.085 127.358L121.122 127.598L122.321 135.712Z" fill="#DBDBDB"/>
<path d="M164.828 9.5332H35.1776V14.0827H164.828V9.5332Z" fill="#455A64"/>
<path d="M38.3325 11.8062C38.3325 12.0297 38.2746 12.2482 38.1661 12.434C38.0576 12.6199 37.9035 12.7646 37.7232 12.85C37.5428 12.9354 37.3445 12.9575 37.1531 12.9137C36.9618 12.8698 36.7861 12.7619 36.6484 12.6036C36.5106 12.4453 36.417 12.2437 36.3793 12.0244C36.3416 11.8051 36.3616 11.5778 36.4367 11.3715C36.5117 11.1652 36.6386 10.9891 36.8011 10.8654C36.9636 10.7417 37.1546 10.6761 37.3497 10.6768C37.479 10.6768 37.6071 10.706 37.7265 10.7628C37.8459 10.8196 37.9544 10.9029 38.0457 11.0078C38.137 11.1127 38.2094 11.2372 38.2586 11.3743C38.3078 11.5113 38.3329 11.658 38.3325 11.8062Z" fill="#C7C7C7"/>
<path d="M42.353 11.8062C42.353 12.0297 42.2951 12.2482 42.1866 12.434C42.0782 12.6199 41.924 12.7646 41.7437 12.85C41.5634 12.9354 41.365 12.9575 41.1736 12.9137C40.9823 12.8698 40.8067 12.7619 40.6689 12.6036C40.5311 12.4453 40.4375 12.2437 40.3998 12.0244C40.3621 11.8051 40.3821 11.5778 40.4572 11.3715C40.5323 11.1652 40.6591 10.9891 40.8216 10.8654C40.9842 10.7417 41.1751 10.6761 41.3702 10.6768C41.4995 10.6768 41.6276 10.706 41.747 10.7628C41.8664 10.8196 41.9749 10.9029 42.0662 11.0078C42.1575 11.1127 42.2299 11.2372 42.2791 11.3743C42.3283 11.5113 42.3534 11.658 42.353 11.8062Z" fill="#FFFCFC"/>
<path d="M46.3736 11.8062C46.3736 12.0297 46.3157 12.2482 46.2073 12.434C46.0988 12.6199 45.9446 12.7646 45.7643 12.85C45.584 12.9354 45.3856 12.9575 45.1943 12.9137C45.0029 12.8698 44.8273 12.7619 44.6895 12.6036C44.5518 12.4453 44.4581 12.2437 44.4204 12.0244C44.3827 11.8051 44.4027 11.5778 44.4778 11.3715C44.5529 11.1652 44.6797 10.9891 44.8423 10.8654C45.0048 10.7417 45.1957 10.6761 45.3908 10.6768C45.5201 10.6768 45.6482 10.706 45.7676 10.7628C45.8871 10.8196 45.9956 10.9029 46.0869 11.0078C46.1782 11.1127 46.2505 11.2372 46.2997 11.3743C46.3489 11.5113 46.374 11.658 46.3736 11.8062Z" fill="#44BFDB"/>
<path d="M101.971 110.217C102.287 108.69 101.462 107.157 100.129 106.795C98.7953 106.433 97.4579 107.378 97.1416 108.906C96.8254 110.433 97.6502 111.966 98.9838 112.328C100.317 112.69 101.655 111.745 101.971 110.217Z" fill="#03254E"/>
<path d="M120.848 125.742H79.1543L79.1943 125.491L79.3022 124.767L79.3546 124.404L80.1463 119.032H119.856L120.605 124.1L120.645 124.344L120.768 125.184L120.802 125.427L120.848 125.742Z" fill="#C7C7C7"/>
<path d="M164.831 14.0825H136.058V93.6303H164.831V14.0825Z" fill="#EBEBEB"/>
<path d="M143.175 46.8292H160.265V34.0771H143.175V46.8292Z" fill="#44BFDB"/>
<path d="M158.235 36.283H145.205V36.5265H158.235V36.283Z" fill="#FFFCFC"/>
<path d="M151.718 37.5928H145.205V37.8363H151.718V37.5928Z" fill="#FFFCFC"/>
<path d="M155.653 40.208H145.205V40.4515H155.653V40.208Z" fill="#FFFCFC"/>
<path d="M158.235 41.5173H145.205V41.7609H158.235V41.5173Z" fill="#FFFCFC"/>
<path d="M158.235 42.8271H145.205V43.0707H158.235V42.8271Z" fill="#FFFCFC"/>
<path d="M149.54 44.1328H145.205V44.3763H149.54V44.1328Z" fill="#FFFCFC"/>
<path d="M160.256 44.4893L161.433 48.8694L157.378 46.8152L160.256 44.4893Z" fill="#44BFDB"/>
<path d="M157.72 19.373H140.63V30.1309H157.72V19.373Z" fill="#03254E"/>
<path d="M140.63 27.8052L139.453 32.1888L143.508 30.1311L140.63 27.8052Z" fill="#03254E"/>
<path d="M150.483 21.3604H142.701V21.6039H150.483V21.3604Z" fill="#FFFCFC"/>
<path d="M155.73 22.6704H142.701V22.9139H155.73V22.6704Z" fill="#FFFCFC"/>
<path d="M155.73 23.9758H142.701V24.2194H155.73V23.9758Z" fill="#FFFCFC"/>
<path d="M153.244 25.2852H142.701V25.5287H153.244V25.2852Z" fill="#FFFCFC"/>
<path d="M155.73 26.5947H142.701V26.8383H155.73V26.5947Z" fill="#FFFCFC"/>
<path d="M147.535 27.9041H142.701V28.1476H147.535V27.9041Z" fill="#FFFCFC"/>
<path d="M157.72 50.4399H140.63V57.8025H157.72V50.4399Z" fill="#03254E"/>
<path d="M140.63 55.4766L139.453 59.8567L143.508 57.8025L140.63 55.4766Z" fill="#03254E"/>
<path d="M153.983 52.4272H142.701V52.6708H153.983V52.4272Z" fill="#FFFCFC"/>
<path d="M148.595 53.7366H142.701V53.9801H148.595V53.7366Z" fill="#FFFCFC"/>
<path d="M152.538 55.0427H142.701V55.2863H152.538V55.0427Z" fill="#FFFCFC"/>
<path d="M161.432 74.4299H139.453V79.0677H161.432V74.4299Z" fill="#FFFCFC"/>
<path d="M160.471 76.8053C160.472 77.0318 160.414 77.2534 160.304 77.442C160.195 77.6306 160.039 77.7777 159.856 77.8647C159.674 77.9517 159.473 77.9746 159.279 77.9306C159.085 77.8866 158.907 77.7776 158.767 77.6175C158.627 77.4573 158.532 77.2532 158.494 77.0311C158.455 76.8089 158.475 76.5787 158.551 76.3696C158.627 76.1605 158.756 75.9819 158.92 75.8565C159.085 75.7312 159.278 75.6646 159.476 75.6653C159.74 75.6662 159.992 75.7866 160.179 76.0002C160.365 76.2138 160.47 76.5032 160.471 76.8053Z" fill="#44BFDB"/>
<path d="M159.291 76.145L159.907 76.805L159.291 77.4651L159.165 77.3098L159.633 76.805L159.165 76.3003L159.291 76.145Z" fill="#FFFCFC"/>
<path d="M140.59 75.365H140.325V78.1321H140.59V75.365Z" fill="#03254E"/>
<path d="M164.828 82.0112H35.1776V93.6303H164.828V82.0112Z" fill="#44BFDB"/>
<path d="M87.8116 91.8131C89.7361 91.8131 91.2961 90.0258 91.2961 87.8212C91.2961 85.6166 89.7361 83.8293 87.8116 83.8293C85.8872 83.8293 84.3271 85.6166 84.3271 87.8212C84.3271 90.0258 85.8872 91.8131 87.8116 91.8131Z" fill="#A6A6A6"/>
<path d="M90.0575 86.7939H89.8973V88.8446H90.0575V86.7939Z" fill="#FFFCFC"/>
<path d="M89.8265 86.7939V88.8446L89.0008 88.6046L88.7605 88.534V87.1045L89.3828 86.9245L89.8265 86.7939Z" fill="#FFFCFC"/>
<path d="M88.3076 86.1797H86.0123C85.7639 86.1797 85.5625 86.4104 85.5625 86.695V88.9468C85.5625 89.2314 85.7639 89.4621 86.0123 89.4621H88.3076C88.556 89.4621 88.7574 89.2314 88.7574 88.9468V86.695C88.7574 86.4104 88.556 86.1797 88.3076 86.1797Z" fill="#FFFCFC"/>
<path d="M112.194 91.8131C114.118 91.8131 115.678 90.0258 115.678 87.8212C115.678 85.6166 114.118 83.8293 112.194 83.8293C110.269 83.8293 108.709 85.6166 108.709 87.8212C108.709 90.0258 110.269 91.8131 112.194 91.8131Z" fill="#A6A6A6"/>
<path d="M112.197 90.5849C112.171 90.5849 112.146 90.573 112.127 90.5518C112.109 90.5306 112.098 90.5019 112.098 90.4719V89.1554C112.098 89.1255 112.109 89.0967 112.127 89.0756C112.146 89.0544 112.171 89.0425 112.197 89.0425C112.223 89.0425 112.248 89.0544 112.266 89.0756C112.285 89.0967 112.295 89.1255 112.295 89.1554V90.4719C112.295 90.5019 112.285 90.5306 112.266 90.5518C112.248 90.573 112.223 90.5849 112.197 90.5849Z" fill="#FFFCFC"/>
<path d="M112.825 90.5848H111.565C111.539 90.5848 111.514 90.5729 111.496 90.5517C111.477 90.5305 111.467 90.5018 111.467 90.4718C111.467 90.4421 111.478 90.4139 111.496 90.3929C111.515 90.372 111.539 90.3598 111.565 90.3589H112.825C112.851 90.3598 112.876 90.372 112.894 90.3929C112.913 90.4139 112.923 90.4421 112.924 90.4718C112.924 90.5018 112.914 90.5305 112.895 90.5517C112.877 90.5729 112.851 90.5848 112.825 90.5848Z" fill="#FFFCFC"/>
<path d="M113.004 85.9818V87.8983C113.009 88.1112 112.949 88.3194 112.835 88.4878C112.722 88.6562 112.561 88.7744 112.38 88.8226C112.198 88.8707 112.008 88.8457 111.842 88.752C111.675 88.6582 111.541 88.5013 111.464 88.3078C111.408 88.1809 111.379 88.0405 111.38 87.8983V85.9818C111.387 85.7448 111.472 85.5197 111.619 85.3526C111.766 85.1855 111.963 85.0892 112.17 85.0833C112.377 85.0774 112.578 85.1625 112.732 85.321C112.886 85.4796 112.981 85.6996 112.998 85.9359L113.004 85.9818Z" fill="#FFFCFC"/>
<path d="M112.194 89.2681C111.882 89.2672 111.584 89.1247 111.363 88.872C111.143 88.6192 111.02 88.2768 111.02 87.9198V87.1116C111.017 87.0953 111.018 87.0786 111.022 87.0627C111.025 87.0467 111.032 87.0319 111.041 87.0192C111.051 87.0066 111.062 86.9964 111.075 86.9894C111.088 86.9824 111.102 86.9788 111.117 86.9788C111.131 86.9788 111.146 86.9824 111.159 86.9894C111.172 86.9964 111.183 87.0066 111.192 87.0192C111.202 87.0319 111.208 87.0467 111.212 87.0627C111.216 87.0786 111.216 87.0953 111.214 87.1116V87.9198C111.214 88.0721 111.242 88.2226 111.295 88.3623C111.348 88.5019 111.425 88.6276 111.522 88.7316C111.617 88.8371 111.73 88.9188 111.854 88.9717C111.979 89.0245 112.111 89.0473 112.243 89.0387C112.496 89.0155 112.733 88.8831 112.904 88.6683C113.076 88.4535 113.17 88.1721 113.167 87.881V87.1116C113.167 87.0816 113.178 87.0529 113.196 87.0317C113.215 87.0106 113.24 86.9986 113.266 86.9986C113.292 86.9986 113.317 87.0106 113.336 87.0317C113.354 87.0529 113.364 87.0816 113.364 87.1116V87.881C113.37 88.2329 113.256 88.5735 113.047 88.8314C112.838 89.0893 112.55 89.2446 112.243 89.2646L112.194 89.2681Z" fill="#FFFCFC"/>
<path d="M101.629 91.8095H98.2619C97.8035 91.8119 97.3491 91.7104 96.9249 91.511C96.5008 91.3116 96.1152 91.0182 95.7903 90.6476C95.4653 90.2771 95.2075 89.8366 95.0316 89.3516C94.8557 88.8665 94.7651 88.3464 94.7651 87.8212C94.7651 86.7625 95.1323 85.7472 95.7857 84.9985C96.4392 84.2499 97.3255 83.8293 98.2496 83.8293H101.617C102.541 83.8293 103.427 84.2499 104.081 84.9985C104.734 85.7472 105.102 86.7625 105.102 87.8212C105.101 88.8769 104.735 89.8892 104.084 90.6366C103.434 91.3841 102.551 91.8058 101.629 91.8095Z" fill="#455A64"/>
<path d="M97.2637 87.75C97.2704 87.6237 97.3065 87.5018 97.3684 87.397L97.4516 87.2523L97.6365 87.0405C97.7073 86.9841 97.7751 86.9205 97.849 86.8676C98.1418 86.6542 98.4685 86.5091 98.8103 86.4405C99.5983 86.2588 100.41 86.2588 101.198 86.4405C101.535 86.5073 101.858 86.6501 102.147 86.8605C102.221 86.917 102.292 86.9805 102.366 87.0405L102.541 87.2417C102.645 87.3881 102.716 87.5614 102.748 87.7464H101.186C101.173 87.7476 101.16 87.7442 101.149 87.7366C101.138 87.729 101.129 87.7176 101.124 87.7041C101.082 87.6094 101.019 87.5294 100.941 87.4723C100.863 87.4152 100.773 87.3831 100.68 87.3794C100.226 87.3476 99.7701 87.3476 99.3155 87.3794C99.2229 87.3845 99.1331 87.4176 99.0552 87.4752C98.9773 87.5328 98.9141 87.613 98.8719 87.7076C98.8719 87.7323 98.8503 87.75 98.8195 87.75H97.2637Z" fill="#03254E"/>
<path d="M97.2607 88.7598V88.1527C97.2607 88.1351 97.2607 88.1209 97.2607 88.1104H98.8012C98.8012 88.1527 98.8012 88.1951 98.8012 88.2409V88.7598C98.8054 88.7905 98.8032 88.822 98.7948 88.8516C98.7863 88.8812 98.7719 88.9081 98.7527 88.9302C98.7335 88.9522 98.71 88.9687 98.6841 88.9783C98.6583 88.988 98.6308 88.9905 98.604 88.9857H97.4517C97.4255 88.9886 97.399 88.9846 97.3742 88.9742C97.3495 88.9638 97.3271 88.9471 97.3088 88.9254C97.2904 88.9037 97.2766 88.8775 97.2682 88.8489C97.2599 88.8202 97.2573 88.7897 97.2607 88.7598Z" fill="#03254E"/>
<path d="M101.195 88.77C101.195 88.5476 101.195 88.3253 101.21 88.1064H102.732C102.734 88.1193 102.734 88.1324 102.732 88.1453V88.7629C102.736 88.7923 102.733 88.8222 102.725 88.8503C102.717 88.8784 102.703 88.904 102.685 88.9251C102.667 88.9463 102.645 88.9624 102.621 88.9722C102.596 88.982 102.57 88.9853 102.544 88.9818H101.38C101.355 88.9845 101.33 88.9809 101.306 88.9712C101.283 88.9615 101.262 88.946 101.244 88.9258C101.226 88.9055 101.213 88.8811 101.204 88.8542C101.196 88.8272 101.193 88.7985 101.195 88.77Z" fill="#03254E"/>
<path d="M136.055 14.0825H105.641V48.188H136.055V14.0825Z" fill="#DBDBDB"/>
<path d="M122.031 35.8242C119.763 38.2949 115.108 40.7161 110.73 40.8326C108.266 40.8996 103.321 30.0994 102.381 27.7523C100.81 23.838 106.932 22.8816 108.349 23.2663C110.114 23.7463 112.804 32.6618 113.777 33.583C114.119 33.9077 118.901 33.1736 120.925 32.7077C123.088 32.2065 123.199 34.5536 122.031 35.8242Z" fill="#AD6359"/>
<path d="M102.495 27.9996C102.122 27.0925 100.736 22.7618 100.588 21.4594C100.44 20.157 100.243 16.3663 101.103 16.1334C101.962 15.9004 102.098 17.0052 102.098 17.0052C102.098 17.0052 102.236 15.3887 103.121 15.2404C104.005 15.0922 104.165 16.8216 104.165 16.8216C104.165 16.8216 104.411 15.1769 105.302 15.1063C106.192 15.0357 106.1 16.7969 106.1 16.7969C106.1 16.7969 106.266 15.2828 107.024 15.5757C107.933 15.9287 107.351 18.6888 107.609 20.1147C107.668 20.4359 109.215 26.5736 109.215 26.5736L102.495 27.9996Z" fill="#AD6359"/>
<path d="M106.106 16.6484C105.684 18.6778 105.798 19.652 106.383 21.5896C106.383 21.6285 106.346 21.6567 106.331 21.6179C105.616 19.772 105.308 18.579 106.023 16.6166C106.057 16.5248 106.127 16.5531 106.106 16.6484Z" fill="#263238"/>
<path d="M104.199 16.6764C103.922 18.8258 104.045 19.8811 104.507 21.9706C104.507 22.0024 104.47 22.0165 104.461 21.9883C103.845 19.987 103.564 18.787 104.091 16.694C104.128 16.5705 104.214 16.567 104.199 16.6764Z" fill="#263238"/>
<path d="M102.125 17.1072C101.984 19.2249 102.076 20.3755 102.766 22.3344C102.766 22.3802 102.723 22.412 102.705 22.3697C101.833 20.4496 101.709 18.999 102.067 17.1107C102.091 16.9801 102.132 16.9766 102.125 17.1072Z" fill="#263238"/>
<path d="M109.649 28.0519C109.649 28.0519 110.419 25.5812 110.549 24.4236C110.678 23.2659 109.769 18.7058 108.9 18.8752C107.779 19.094 107.853 21.84 108.041 23.1812C108.041 23.1812 105.443 23.6824 105.126 25.6518C104.809 27.6213 109.649 28.0519 109.649 28.0519Z" fill="#AD6359"/>
<path d="M108.611 19.052C107.711 20.1109 108.059 21.8368 108.158 23.1533C108.16 23.1725 108.158 23.1921 108.153 23.2103C108.147 23.2286 108.138 23.2451 108.125 23.2582C108.113 23.2714 108.098 23.281 108.081 23.286C108.065 23.2911 108.048 23.2916 108.031 23.2874C106.953 23.5803 105.511 24.3462 105.083 25.5992C105.083 25.6067 105.08 25.6139 105.076 25.6192C105.071 25.6245 105.065 25.6275 105.058 25.6275C105.052 25.6275 105.046 25.6245 105.041 25.6192C105.036 25.6139 105.034 25.6067 105.034 25.5992C105.342 24.1874 106.697 23.3015 107.893 23.065C107.773 21.7168 107.492 19.9556 108.601 19.0591L108.611 19.052Z" fill="#263238"/>
<path d="M110.456 25.853C110.456 25.853 103.918 31.5708 103.928 32.2061C103.928 32.2061 108.349 40.8322 110.397 41.0087C113.478 41.2699 118.245 39.2792 121.051 37.0768C124.055 34.7191 124.255 31.892 120.487 32.4673C116.433 33.0885 114.227 33.5262 113.83 33.1732C113.432 32.8203 110.786 25.9942 110.456 25.853Z" fill="#407BFF"/>
<path d="M110.974 28.0384C110.447 28.4175 109.938 28.8275 109.449 29.2666C108.95 29.6937 108.454 30.1278 107.97 30.5761C107.486 31.0243 106.999 31.4761 106.528 31.942C106.057 32.4079 105.632 32.8667 105.179 33.322C105.157 33.3432 105.179 33.382 105.209 33.3644C105.696 32.9232 106.198 32.5032 106.691 32.0691C107.184 31.6349 107.668 31.1902 108.161 30.749C108.654 30.3078 109.135 29.8631 109.621 29.4149C110.108 28.9666 110.57 28.5572 111.008 28.0843C111.029 28.0596 110.998 28.0243 110.974 28.0384Z" fill="#263238"/>
<path opacity="0.1" d="M121.051 37.0773C118.245 39.2797 113.469 41.2703 110.398 41.0092C110.273 40.9956 110.152 40.9598 110.037 40.9033L123.109 33.0396C123.726 33.929 122.94 35.5949 121.051 37.0773Z" fill="black"/>
<path d="M121.84 34.8746C122.863 35.2982 124.85 33.6923 125.71 32.2911C125.768 32.1958 125.737 31.1016 125.756 29.7675C125.771 28.9592 125.802 28.0557 125.885 27.2368L121.264 27.9039C121.418 28.9613 121.46 30.0363 121.387 31.1051C121.376 31.2181 121.354 31.3293 121.322 31.4369C121.322 31.4546 121.322 31.4722 121.322 31.4934C121.165 32.1181 120.851 34.4688 121.84 34.8746Z" fill="#AD6359"/>
<path d="M125.623 27.2656C125.361 28.3704 124.329 31.8363 121.778 31.5716C121.624 31.5555 121.47 31.526 121.319 31.4834C121.319 31.4622 121.319 31.4445 121.319 31.4269C121.351 31.3193 121.373 31.2081 121.384 31.0951C121.457 30.0263 121.415 28.9512 121.261 27.8939L125.623 27.2656Z" fill="#263238"/>
<path d="M126.4 20.6334C126.939 22.4476 126.24 27.7736 125.133 28.9948C123.528 30.7596 120.82 31.0243 119.502 28.7972C118.211 26.6406 119.231 19.7193 120.475 18.6004C122.302 16.9522 125.605 17.951 126.4 20.6334Z" fill="#AD6359"/>
<path d="M122.678 24.0886C122.678 24.0886 122.703 24.1098 122.7 24.1239C122.644 24.4769 122.632 24.9004 122.9 25.0663C122.9 25.0663 122.9 25.091 122.9 25.0875C122.558 24.9816 122.576 24.4416 122.678 24.0886Z" fill="#263238"/>
<path d="M123.008 23.7677C123.516 23.8066 123.408 24.9713 122.937 24.936C122.465 24.9007 122.579 23.736 123.008 23.7677Z" fill="#263238"/>
<path d="M120.829 23.792C120.829 23.792 120.802 23.792 120.802 23.8238C120.777 24.1767 120.697 24.5932 120.401 24.6779V24.6991C120.756 24.685 120.857 24.1414 120.829 23.792Z" fill="#263238"/>
<path d="M120.583 23.3825C120.081 23.2766 119.933 24.4414 120.398 24.5331C120.863 24.6249 121.002 23.4708 120.583 23.3825Z" fill="#263238"/>
<path d="M123.457 23.2837C123.327 23.2236 123.201 23.1541 123.078 23.0755C122.936 23.0251 122.813 22.9221 122.727 22.7825C122.708 22.7322 122.703 22.6759 122.714 22.6223C122.725 22.5687 122.752 22.5208 122.789 22.4861C122.871 22.4315 122.965 22.4028 123.06 22.4028C123.155 22.4028 123.249 22.4315 123.331 22.4861C123.513 22.5699 123.662 22.7284 123.747 22.9308C123.765 22.978 123.77 23.0301 123.762 23.0806C123.754 23.1312 123.733 23.178 123.703 23.2154C123.672 23.2528 123.632 23.2792 123.589 23.2913C123.545 23.3034 123.5 23.3008 123.457 23.2837Z" fill="#263238"/>
<path d="M120.244 22.7477C120.379 22.7342 120.513 22.7106 120.645 22.6771C120.795 22.6773 120.94 22.6187 121.057 22.5112C121.088 22.4701 121.107 22.4185 121.109 22.3642C121.112 22.31 121.099 22.2562 121.073 22.2112C121.008 22.131 120.925 22.0721 120.834 22.0405C120.742 22.0089 120.645 22.0057 120.552 22.0312C120.357 22.0501 120.176 22.1522 120.044 22.3171C120.013 22.357 119.994 22.4065 119.989 22.459C119.984 22.5116 119.993 22.5647 120.015 22.6113C120.036 22.658 120.07 22.696 120.111 22.7204C120.152 22.7447 120.198 22.7543 120.244 22.7477Z" fill="#263238"/>
<path d="M122.573 27.4203C122.487 27.4945 122.404 27.6003 122.287 27.6003C122.17 27.5824 122.058 27.5367 121.957 27.4662C121.957 27.4662 121.935 27.4662 121.942 27.4839C121.98 27.5606 122.036 27.6238 122.103 27.6667C122.17 27.7097 122.247 27.7306 122.324 27.7274C122.39 27.7162 122.452 27.6827 122.501 27.6312C122.55 27.5796 122.585 27.5124 122.601 27.438C122.601 27.438 122.582 27.4098 122.573 27.4203Z" fill="#263238"/>
<path d="M122.342 26.2981C122.249 26.4317 122.133 26.5417 122.001 26.6212C121.869 26.7008 121.724 26.7482 121.575 26.7605C121.445 26.7705 121.315 26.761 121.187 26.7323H121.113L121.045 26.7111C121.029 26.7046 121.015 26.6927 121.005 26.6769C120.995 26.6611 120.99 26.6423 120.99 26.6228C120.988 26.6112 120.988 26.5992 120.99 26.5876V26.5558C121.008 26.277 121.07 25.8499 121.07 25.8499C120.977 25.8922 120.503 26.0687 120.524 25.924C120.669 24.6753 120.924 23.4467 121.285 22.2569C121.285 22.2484 121.288 22.2404 121.293 22.2344C121.299 22.2284 121.306 22.2251 121.313 22.2251C121.32 22.2251 121.328 22.2284 121.333 22.2344C121.338 22.2404 121.341 22.2484 121.341 22.2569C121.215 23.411 120.91 24.5334 120.765 25.6911C120.934 25.6244 121.11 25.5852 121.288 25.5746C121.322 25.5922 121.156 26.3828 121.156 26.5099C121.353 26.5566 121.555 26.5576 121.752 26.5127C121.949 26.4678 122.136 26.3781 122.302 26.2487C122.339 26.2452 122.364 26.2734 122.342 26.2981Z" fill="#263238"/>
<path d="M121.347 26.6547C121.47 26.8636 121.637 27.0326 121.834 27.1453C121.943 27.2 122.064 27.2172 122.182 27.1947C122.438 27.1347 122.456 26.87 122.422 26.6405C122.403 26.5193 122.372 26.4009 122.33 26.2876C122.045 26.5268 121.7 26.6555 121.347 26.6547Z" fill="#263238"/>
<path d="M121.834 27.145C121.943 27.1997 122.064 27.2169 122.182 27.1944C122.438 27.1344 122.456 26.8697 122.422 26.6402C122.289 26.6353 122.158 26.6827 122.051 26.7744C121.944 26.8661 121.867 26.9968 121.834 27.145Z" fill="#FF99BA"/>
<path d="M119.874 20.1605C121.285 21.7664 123.802 20.3123 123.802 20.3123C123.875 20.7456 124.068 21.1405 124.352 21.4381C124.636 21.7357 124.997 21.9202 125.38 21.9641C125.38 21.9641 125.195 25.1618 125.916 25.3065C127.016 25.5289 128.039 21.3323 127.829 20.4182C127.62 19.504 126.72 19.0946 126.72 19.0946C126.699 18.5617 126.503 18.0575 126.172 17.6828C125.528 16.8781 122.801 17.2169 122.801 17.2169C122.716 16.7905 122.545 16.3929 122.302 16.0557C122.244 15.9717 122.172 15.902 122.09 15.8509C122.008 15.7998 121.917 15.7684 121.824 15.7585C121.731 15.7486 121.637 15.7605 121.549 15.7933C121.46 15.8262 121.377 15.8795 121.307 15.9498C121.409 16.2101 121.458 16.494 121.449 16.7793C121.43 17.7216 120.777 17.584 120.916 16.7545C120.957 16.4411 121.096 16.1553 121.307 15.9498C121.073 15.3392 120.574 15.0533 120.207 15.2757C119.539 15.6816 118.697 18.8228 119.874 20.1605Z" fill="#263238"/>
<path d="M125.531 24.9819C125.531 24.9819 126.56 23.256 127.241 23.676C127.922 24.096 127.164 26.5878 126.369 26.9372C126.27 26.9896 126.162 27.0185 126.053 27.0222C125.944 27.026 125.835 27.0045 125.733 26.959C125.631 26.9136 125.539 26.8451 125.461 26.7576C125.382 26.6702 125.32 26.5656 125.278 26.4502L125.531 24.9819Z" fill="#AD6359"/>
<path d="M127.007 24.3816V24.4063C126.449 24.6745 126.163 25.271 125.962 25.8887C125.994 25.824 126.038 25.7681 126.09 25.7247C126.143 25.6813 126.203 25.6515 126.267 25.6374C126.33 25.6233 126.396 25.6252 126.459 25.643C126.521 25.6608 126.58 25.694 126.631 25.7404C126.631 25.7404 126.631 25.7793 126.615 25.7757C126.517 25.7412 126.411 25.7423 126.313 25.7789C126.215 25.8155 126.129 25.8859 126.067 25.9805C125.966 26.1404 125.881 26.3119 125.811 26.4922C125.784 26.5487 125.694 26.5205 125.713 26.4534C125.7 25.624 126.243 24.4734 127.007 24.3816Z" fill="#263238"/>
<path d="M132.3 48.1915C130.627 41.8032 128.331 34.7971 126.116 32.7571C125.907 32.4041 126.184 31.0911 126.036 30.957C125.888 30.8229 121.15 31.0453 121.011 31.1794C120.873 31.3135 121.011 32.1218 120.86 32.33C119.879 34.1403 119.025 36.0369 118.306 38.0019C117.607 40.0349 116.846 44.115 116.224 48.1915H132.3Z" fill="#407BFF"/>
<path d="M125.574 31.3169C125.521 31.7276 125.521 32.1451 125.574 32.5558C125.632 32.1454 125.632 31.7272 125.574 31.3169Z" fill="#263238"/>
<path d="M124.976 31.3169C124.919 31.7272 124.919 32.1454 124.976 32.5558C125.034 32.1454 125.034 31.7272 124.976 31.3169Z" fill="#263238"/>
<path d="M124.385 31.3169C124.327 31.7272 124.327 32.1454 124.385 32.5558C124.438 32.1451 124.438 31.7276 124.385 31.3169Z" fill="#263238"/>
<path d="M123.79 31.3169C123.737 31.7276 123.737 32.1451 123.79 32.5558C123.82 32.3516 123.834 32.145 123.833 31.9381C123.833 31.7301 123.819 31.5224 123.79 31.3169Z" fill="#263238"/>
<path d="M123.199 31.3169C123.17 31.5224 123.156 31.7301 123.156 31.9381C123.155 32.145 123.169 32.3516 123.199 32.5558C123.252 32.1451 123.252 31.7276 123.199 31.3169Z" fill="#263238"/>
<path d="M122.604 31.3169C122.551 31.7276 122.551 32.1451 122.604 32.5558C122.635 32.3519 122.65 32.1451 122.647 31.9381C122.648 31.73 122.634 31.5222 122.604 31.3169Z" fill="#263238"/>
<path d="M122.012 31.3169C121.955 31.7272 121.955 32.1454 122.012 32.5558C122.07 32.1454 122.07 31.7272 122.012 31.3169Z" fill="#263238"/>
<path d="M121.421 31.3169C121.363 31.7272 121.363 32.1454 121.421 32.5558C121.474 32.1451 121.474 31.7276 121.421 31.3169Z" fill="#263238"/>
<path d="M119.061 35.9093C118.88 36.2686 118.717 36.6398 118.574 37.0211C118.574 36.9434 118.602 36.8622 118.614 36.7811C118.651 36.5693 118.701 36.354 118.753 36.1457C118.753 36.1457 118.753 36.1457 118.738 36.1457C118.664 36.3497 118.604 36.5597 118.559 36.774C118.525 36.9331 118.5 37.0946 118.485 37.2575C118.466 37.307 118.445 37.3564 118.429 37.4093C118.258 37.9139 118.111 38.4288 117.989 38.9517C117.989 38.987 118.026 38.9976 118.035 38.9517C118.371 37.9317 118.756 36.9364 119.086 35.9128C119.104 35.9022 119.067 35.8952 119.061 35.9093Z" fill="#263238"/>
<path d="M136.049 44.3164C132.863 39.3751 128.655 34.6808 126.658 33.5055C124.255 32.0937 126.113 37.3633 127.638 40.4339C128.871 42.9363 131.613 47.14 131.437 47.26C131.261 47.38 130.676 45.6964 129.773 45.527C128.738 45.3293 124.342 45.527 124.416 46.2329C124.443 46.5258 124.739 47.2388 125.238 48.1882H136.049V44.3164Z" fill="#AD6359"/>
<path d="M136.049 48.1809V44.0126C133.823 40.7427 131.368 37.6866 128.707 34.8747C125.864 32.0158 124.166 31.8711 126.289 37.6524C127.522 41.0584 129.212 44.2226 131.298 47.0303C131.298 47.0303 128.27 47.6868 126.492 48.1844L136.049 48.1809Z" fill="#407BFF"/>
<path d="M125.898 38.3619C126.132 38.5561 126.354 38.7683 126.563 38.9972L126.739 39.2019C126.461 38.6619 126.19 38.1184 125.931 37.5678C125.928 37.5593 125.927 37.5496 125.93 37.5406C125.932 37.5317 125.938 37.5243 125.945 37.5201C125.953 37.5159 125.961 37.5152 125.969 37.5182C125.977 37.5212 125.983 37.5276 125.987 37.536C126.757 38.9478 127.527 40.3596 128.301 41.7326C129.074 43.1055 129.884 44.4609 130.685 45.8162C131.141 46.5856 131.579 47.3727 132.038 48.1386C132.056 48.1668 132.013 48.1986 131.995 48.1704C131.554 47.5209 131.098 46.8856 130.676 46.2185C130.254 45.5515 129.863 44.902 129.471 44.2314C128.668 42.8596 127.9 41.462 127.167 40.0384L126.948 39.6149C126.887 39.5478 126.822 39.4878 126.76 39.4278C126.652 39.3219 126.548 39.2125 126.452 39.1031C126.252 38.8813 126.063 38.6455 125.888 38.3972C125.888 38.3972 125.882 38.3478 125.898 38.3619Z" fill="#263238"/>
<path d="M131.391 44.3621C130.528 44.235 130.137 45.2374 130.137 45.2374C130.137 45.2374 129.752 44.0056 128.867 44.0056C128.412 44.0056 128.014 44.8421 128.014 44.8421C127.903 44.5966 127.735 44.3908 127.528 44.2471C127.322 44.1034 127.085 44.0272 126.843 44.0268C126.227 44.0727 125.919 44.9021 125.919 44.9021C125.919 44.9021 125.21 44.2597 124.585 44.5492C123.316 45.1209 123.094 51.294 125.047 52.3388C125.971 52.8258 125.938 51.3152 125.938 51.3152C125.938 51.3152 126.421 53.4823 127.53 53.567C128.64 53.6517 128.513 51.6893 128.513 51.6893C128.513 51.6893 128.997 53.7823 130.155 53.7364C131.314 53.6906 130.941 51.7529 130.941 51.7529C130.941 51.7529 131.705 53.1647 132.583 52.8964C134.037 52.4552 132.392 49.5363 132.722 48.1916H135.741C135.741 48.1916 133.535 44.6868 131.391 44.3621Z" fill="#AD6359"/>
<path d="M124.422 46.1444C123.208 46.3738 122.083 44.4538 120.897 44.482C119.289 44.5173 120.312 47.6303 122.527 48.1774H124.416L124.422 46.1444Z" fill="#AD6359"/>
<path d="M125.848 45.0259C125.848 45.0048 125.824 44.9977 125.82 45.0259C125.29 47.1134 125.325 49.3364 125.922 51.4002C125.944 51.4637 126.045 51.4532 126.033 51.379C125.703 49.2828 125.641 47.1427 125.848 45.0259Z" fill="#263238"/>
<path d="M128.005 44.8139C128.003 44.8093 128.001 44.8054 127.997 44.8026C127.993 44.7998 127.989 44.7983 127.985 44.7983C127.981 44.7983 127.976 44.7998 127.973 44.8026C127.969 44.8054 127.966 44.8093 127.965 44.8139C127.401 47.121 127.575 49.583 128.455 51.7564C128.489 51.8305 128.584 51.8623 128.55 51.7564C128.014 50.2599 127.783 46.7939 128.005 44.8139Z" fill="#263238"/>
<path d="M131.049 51.8799C130.205 49.7622 130.041 47.5174 130.161 45.202C130.161 45.1703 130.128 45.1703 130.118 45.202C129.792 46.3174 129.847 47.8033 129.98 48.9574C130.082 50.0295 130.428 51.052 130.984 51.9222C131.006 51.9504 131.067 51.9257 131.049 51.8799Z" fill="#263238"/>
<path d="M123.781 46.0844C123.571 46.7505 123.489 47.4609 123.541 48.1668C123.541 48.1986 123.587 48.2056 123.59 48.1668C123.627 47.8139 123.716 46.7338 123.83 46.0915C123.836 46.0703 123.793 46.0562 123.781 46.0844Z" fill="#263238"/>
<mask id="mask0_34_530" style="mask-type:luminance" maskUnits="userSpaceOnUse" x="35" y="9" width="102" height="74">
<path d="M136.058 9.5332H35.1776V82.0114H136.058V9.5332Z" fill="white"/>
</mask>
<g mask="url(#mask0_34_530)">
<path d="M59.3719 38.1751C58.9344 45.813 58.5955 53.6802 59.184 61.311C59.64 67.2582 61.775 72.1748 67.1512 73.6995C72.136 75.1113 79.2591 75.0901 83.523 71.3453C85.5071 69.5982 86.2157 67.1099 86.111 64.3075C85.9662 60.4251 83.4676 39.0716 82.722 32.4185C82.2753 28.3631 81.8408 24.2548 80.7687 20.33C78.5166 12.0957 74.9735 12.1204 74.4837 11.951C74.0616 11.6333 71.3535 10.2109 67.4685 11.5769C66.4539 11.9327 65.5163 12.5297 64.7168 13.3288C63.9173 14.128 63.2739 15.1113 62.8287 16.2146C59.985 22.7654 59.7878 31.0244 59.3719 38.1751Z" fill="#263238"/>
<path d="M75.5773 13.1016C79.8197 15.4346 80.7871 20.7783 81.776 25.5713C83.1532 32.2421 84.4287 38.941 85.4207 45.6894C85.8983 48.9401 86.3111 52.2049 86.6531 55.4767C86.9612 58.6109 87.4695 61.9569 87.2693 65.1193C86.9181 70.343 82.7188 72.6724 78.6674 73.3677C78.6266 73.3762 78.5845 73.3657 78.5504 73.3385C78.5163 73.3114 78.493 73.2698 78.4857 73.223C78.4783 73.1762 78.4875 73.128 78.5112 73.0889C78.5349 73.0499 78.5711 73.0232 78.612 73.0148C80.9196 72.5207 83.2795 71.8148 85.011 69.8771C87.2354 67.4064 87.0105 64.1099 86.7794 60.8451C86.3881 55.2826 85.7196 49.7519 84.8785 44.2565C84.0374 38.761 83.03 33.2903 81.9393 27.8478C80.9042 22.6665 80.1801 15.8476 75.5742 13.1687C75.5095 13.1475 75.5342 13.0769 75.5773 13.1016Z" fill="#263238"/>
<path d="M60.8137 20.7605C61.661 16.7757 63.5095 12.9039 67.1912 11.7886C62.4281 13.4651 61.2173 19.3911 60.5395 24.35C59.8289 29.5619 59.2856 34.8021 58.9097 40.0704C58.5462 45.1317 58.2751 50.2318 58.3151 55.3143C58.3583 60.7956 59.1778 65.9416 61.9598 70.4911C61.969 70.5097 61.9722 70.5314 61.9689 70.5525C61.9657 70.5735 61.9561 70.5926 61.9418 70.6064C61.9276 70.6202 61.9096 70.6278 61.8909 70.6281C61.8723 70.6283 61.8542 70.6211 61.8397 70.6076C59.0915 66.9193 58.2135 61.8756 58.0348 57.1602C57.7975 50.9483 58.2073 44.6411 58.6879 38.4539C59.147 32.5914 59.5968 26.503 60.8137 20.7605Z" fill="#263238"/>
<path d="M101.087 65.9451L98.5392 86.1762C98.5392 86.1762 85.2329 86.4409 80.0539 82.9573C73.775 78.7219 68.1123 52.4942 67.453 48.2447C66.3686 41.2669 67.6718 37.4974 70.651 39.181C71.8094 39.8234 73.2235 41.2987 74.8441 43.7411C76.5417 46.2894 86.0185 62.4686 89.3089 65.871C91.1574 67.7734 101.087 65.9451 101.087 65.9451Z" fill="#EBEBEB"/>
<path d="M95.3813 84.7081C95.6894 81.7045 97.2946 69.4677 97.7998 66.8524C97.8337 66.6688 97.9416 66.6512 97.9262 66.8524C97.2206 75.8737 95.9113 81.7962 95.4861 84.7222C95.483 84.7963 95.3813 84.7963 95.3813 84.7081Z" fill="#263238"/>
<path d="M92.9444 86.0103C88.6712 85.7209 83.027 84.9515 80.0601 82.9573C73.7812 78.7219 68.1186 52.4942 67.4593 48.2447C66.3748 41.2669 67.678 37.4974 70.6572 39.181C70.7522 39.2319 70.8447 39.2885 70.9345 39.3504L92.9444 86.0103Z" fill="#263238"/>
<path d="M76.7697 82.0079L75.9717 66.8628C75.9717 66.8628 79.5271 62.3557 78.7445 58.2861C78.3471 56.2249 72.21 40.554 71.6092 39.9116C69.1907 37.3315 65.1116 38.3586 63.4387 39.8092C54.1652 47.8388 47.6276 65.0698 44.4912 82.0079H76.7697Z" fill="#407BFF"/>
<path d="M76.7697 82.0079L75.9717 66.8628C75.9717 66.8628 79.5271 62.3557 78.7445 58.2861C78.3471 56.2249 72.21 40.554 71.6092 39.9116C69.1907 37.3315 65.1116 38.3586 63.4387 39.8092C54.1652 47.8388 47.6276 65.0698 44.4912 82.0079H76.7697Z" fill="#407BFF"/>
<path d="M75.9717 66.8667L76.7604 82.0117H44.4943C47.6275 65.0701 54.1652 47.8391 63.4387 39.8095C63.5588 39.7072 63.6913 39.6084 63.833 39.5095L64.0733 39.3542C64.1657 39.2942 64.2643 39.2413 64.3814 39.1848L64.5354 39.1072L73.735 64.8125L71.6369 39.9225C72.1452 40.5437 75.9501 50.1227 77.7987 55.2793C77.8072 55.2919 77.8135 55.3063 77.8172 55.3217L78.1037 56.1441C78.1376 56.2429 78.1715 56.3417 78.2054 56.4335C78.2547 56.5852 78.3039 56.7335 78.3502 56.8676C78.5109 57.3292 78.6498 57.8005 78.7661 58.2794C79.5363 62.356 75.9717 66.8667 75.9717 66.8667Z" fill="#EBEBEB"/>
<path d="M64.0733 39.3538C63.2876 41.8597 62.4681 44.3515 61.6671 46.8504L61.5315 46.6139L66.2484 46.7445H66.5564L66.4301 47.0763L64.8373 51.2835L64.8065 50.987L69.4094 58.0071L71.7108 61.519L73.9906 65.0485L73.4576 65.225L73.9814 57.7177C74.1478 55.2118 74.3511 52.7129 74.539 50.2105L74.5791 50.3658L72.3608 46.8151L72.2438 46.621L72.4317 46.5398L73.8766 45.9045L73.8058 46.0986C73.0756 44.0409 72.3362 41.9868 71.6245 39.9185C72.444 41.9338 73.2389 43.9598 74.043 45.9822L74.0954 46.1198L73.9722 46.1798L72.5488 46.8857L72.6166 46.6104L74.9087 50.1011L74.9519 50.1681V50.2564C74.8132 52.7623 74.6869 55.2683 74.5205 57.7742L74.0522 65.2885L73.9968 66.1885L73.5223 65.4826L71.2271 61.9531L68.9503 58.4236L64.3998 51.3646L64.3074 51.2235L64.3721 51.0682L66.0543 46.9033L66.2391 47.2563L61.5284 46.9951H61.3097L61.3929 46.7728C62.2833 44.2668 63.1582 41.8032 64.0733 39.3538Z" fill="#DBDBDB"/>
<path d="M71.4767 38.7895C71.4767 38.7895 71.5722 44.3308 70.6911 44.3943C67.9799 44.592 65.0777 40.226 64.9299 39.5448C64.8929 39.3719 65.2225 35.08 65.4844 31.7482C65.6539 29.6022 65.7925 27.8657 65.7925 27.8657L72.5828 32.6235L71.5445 38.3766L71.4767 38.7895Z" fill="#EB9481"/>
<path d="M72.5826 32.6235L71.5444 38.3766C70.187 37.8192 68.9471 36.941 67.9052 35.7991C66.8633 34.6572 66.0427 33.277 65.4966 31.7482C65.666 29.6022 65.8047 27.8657 65.8047 27.8657L66.6612 28.4234L72.5826 32.6235Z" fill="#263238"/>
<path d="M79.943 23.6549C81.123 33.8904 75.9132 35.8422 73.9876 36.1316C72.2407 36.3928 66.2638 37.0316 64.1688 27.0043C62.0738 16.9771 65.8479 13.1193 69.8099 12.2758C73.772 11.4322 78.763 13.4334 79.943 23.6549Z" fill="#EB9481"/>
<path d="M78.1284 22.3489C77.9214 22.3289 77.7157 22.2948 77.5122 22.2466C77.2889 22.2461 77.0721 22.1605 76.8961 22.0031C76.8476 21.9428 76.819 21.8651 76.815 21.7834C76.8111 21.7016 76.8321 21.6208 76.8745 21.5548C76.9701 21.4362 77.0916 21.3491 77.2265 21.3026C77.3614 21.256 77.5048 21.2517 77.6416 21.2901C77.9315 21.3156 78.2022 21.4656 78.3995 21.7101C78.442 21.7676 78.4689 21.8379 78.4771 21.9126C78.4853 21.9872 78.4744 22.063 78.4457 22.1307C78.4169 22.1984 78.3716 22.2551 78.3153 22.2938C78.259 22.3326 78.1941 22.3517 78.1284 22.3489Z" fill="#263238"/>
<path d="M72.0806 23.009C72.2837 22.9579 72.4843 22.8943 72.6814 22.8184C72.9002 22.7853 73.1035 22.6713 73.2606 22.4937C73.2999 22.4262 73.3188 22.3458 73.3143 22.2648C73.3098 22.1838 73.2823 22.1068 73.236 22.0454C73.1276 21.9408 72.9969 21.8709 72.8573 21.843C72.7176 21.8151 72.574 21.8301 72.4411 21.8866C72.1576 21.9545 71.9068 22.1423 71.7386 22.4125C71.7021 22.4759 71.6825 22.5501 71.6824 22.6261C71.6823 22.7021 71.7016 22.7764 71.738 22.8399C71.7744 22.9034 71.8263 22.9532 71.8872 22.9833C71.9481 23.0134 72.0153 23.0223 72.0806 23.009Z" fill="#263238"/>
<path d="M73.7103 25.3842C73.7103 25.356 73.6641 25.4231 73.6672 25.4513C73.7411 26.1572 73.7196 26.9619 73.1835 27.2478C73.1681 27.2478 73.1835 27.2902 73.1835 27.2866C73.8582 27.1102 73.8767 26.0301 73.7103 25.3842Z" fill="#263238"/>
<path d="M73.1127 24.7066C72.1237 24.7066 72.213 26.9796 73.1127 26.9725C74.0123 26.9655 73.9383 24.696 73.1127 24.7066Z" fill="#263238"/>
<path d="M72.7276 24.8476C72.5612 24.9817 72.401 25.2006 72.1946 25.2535C71.9881 25.3064 71.7632 25.0664 71.5969 24.8441C71.5784 24.8229 71.563 24.8441 71.563 24.8723C71.563 25.3064 71.7386 25.7441 72.1453 25.79C72.5519 25.8359 72.7614 25.437 72.8477 24.9888C72.86 24.9076 72.7953 24.7947 72.7276 24.8476Z" fill="#263238"/>
<path d="M77.0716 24.9996C77.0716 24.9713 77.1209 25.0313 77.1209 25.0596C77.1209 25.7655 77.2318 26.5667 77.7956 26.7749C77.7989 26.7765 77.8017 26.7793 77.8037 26.7827C77.8056 26.7862 77.8067 26.7902 77.8067 26.7943C77.8067 26.7984 77.8056 26.8025 77.8037 26.8059C77.8017 26.8094 77.7989 26.8121 77.7956 26.8137C77.1116 26.7325 76.9761 25.6666 77.0716 24.9996Z" fill="#263238"/>
<path d="M77.5954 24.2405C78.5751 24.1135 78.7292 26.3582 77.8203 26.4924C76.9115 26.6265 76.7697 24.35 77.5954 24.2405Z" fill="#263238"/>
<path d="M78.0143 24.3535C78.1806 24.4594 78.347 24.6641 78.5349 24.6606C78.7229 24.657 78.8954 24.3994 79.0186 24.1523C79.0186 24.1276 79.0464 24.1523 79.0494 24.177C79.0895 24.6076 78.994 25.0665 78.6366 25.1829C78.2792 25.2994 78.0451 24.9394 77.9249 24.5159C77.9034 24.4417 77.9496 24.3112 78.0143 24.3535Z" fill="#263238"/>
<path d="M73.7658 30.8834C73.9137 31.0493 74.0739 31.2751 74.2834 31.2963C74.5107 31.2924 74.7345 31.2322 74.9396 31.1198C74.9612 31.1198 74.9797 31.1198 74.9673 31.1551C74.8803 31.2934 74.7621 31.402 74.6253 31.4692C74.4885 31.5363 74.3384 31.5595 74.191 31.5363C74.0655 31.4997 73.9525 31.4211 73.8663 31.3104C73.7801 31.1997 73.7247 31.0621 73.7073 30.9151C73.698 30.8763 73.7442 30.8622 73.7658 30.8834Z" fill="#263238"/>
<path d="M76.1966 28.1832C76.1966 28.1832 76.3752 29.2209 76.3999 29.715C76.3999 29.7609 76.2982 29.7891 76.1534 29.8103C75.787 29.9122 75.4032 29.8966 75.044 29.7652C74.6848 29.6339 74.3641 29.3918 74.117 29.0656C74.0861 29.0197 74.1385 28.9632 74.1786 28.9915C74.7492 29.3863 75.4162 29.5585 76.0795 29.4821C76.1041 29.3444 75.7221 27.7173 75.7899 27.7173C76.1264 27.7288 76.46 27.7918 76.7819 27.9044C76.4738 25.7302 75.8577 23.6302 75.5496 21.4595C75.5473 21.4435 75.5502 21.4272 75.5577 21.4134C75.5652 21.3997 75.5767 21.3895 75.5903 21.3848C75.6038 21.38 75.6183 21.3811 75.6312 21.3877C75.6442 21.3943 75.6545 21.406 75.6605 21.4207C76.4461 23.5666 76.8589 26.062 77.2379 28.2997C77.2779 28.5679 76.3722 28.2538 76.1966 28.1832Z" fill="#263238"/>
<path d="M75.6636 29.6973C75.4518 30.0218 75.1706 30.2783 74.8472 30.4421C74.6693 30.5249 74.4733 30.5421 74.2864 30.4915C73.8767 30.375 73.8613 29.9479 73.9321 29.5809C73.976 29.3891 74.0402 29.2042 74.1232 29.0303C74.5622 29.4336 75.1015 29.6671 75.6636 29.6973Z" fill="#263238"/>
<path d="M74.8534 30.442C74.6755 30.5248 74.4795 30.5421 74.2927 30.4914C73.8829 30.3749 73.8675 29.9479 73.9384 29.5808C74.1529 29.5867 74.3596 29.6747 74.5254 29.8308C74.6912 29.9869 74.8067 30.202 74.8534 30.442Z" fill="#FF99BA"/>
<path d="M64.6649 26.3797C66.7476 26.3197 66.6151 22.5608 66.6151 22.5608C66.6151 22.5608 68.9689 22.2078 69.0089 17.8489C69.0089 17.8489 70.2413 20.4395 73.4393 20.849C74.1201 20.9372 71.791 19.0136 71.791 19.0136C71.791 19.0136 74.5946 21.7278 79.6103 20.4572C79.9677 20.3654 79.0218 14.2947 74.9889 12.3711C70.9561 10.4475 67.4315 11.7711 65.0685 14.7323C65.0685 14.7323 62.2094 16.3771 61.9876 19.5395C61.7658 22.7019 63.8546 26.4009 64.6649 26.3797Z" fill="#263238"/>
<path d="M72.3916 29.1045C71.8656 29.1007 71.3511 28.9279 70.9067 28.6057C70.4622 28.2835 70.1056 27.8248 69.8774 27.2818C69.6493 26.7389 69.5588 26.1335 69.6161 25.5345C69.6735 24.9355 69.8765 24.367 70.202 23.8937C70.5275 23.4203 70.9624 23.0612 71.4573 22.8571C71.9522 22.6529 72.4872 22.6121 73.0014 22.7391C73.5155 22.8661 73.9883 23.1559 74.3658 23.5755C74.7433 23.9951 75.0104 24.5277 75.1367 25.1126C75.2388 25.5884 75.2449 26.0846 75.1544 26.5635C75.064 27.0424 74.8794 27.4914 74.6148 27.8762C74.3501 28.2611 74.0123 28.5718 73.6271 28.7846C73.2418 28.9975 72.8193 29.1069 72.3916 29.1045ZM72.4255 23.1043C72.223 23.1017 72.0211 23.129 71.8247 23.1855C71.2235 23.3555 70.7014 23.7817 70.3649 24.3773C70.0283 24.9728 69.9026 25.6929 70.0133 26.3909C70.124 27.089 70.4628 27.7124 70.9607 28.1343C71.4585 28.5562 72.0781 28.7448 72.6931 28.6617C73.3081 28.5786 73.8724 28.23 74.2709 27.687C74.6694 27.144 74.8723 26.4474 74.8382 25.739C74.8041 25.0306 74.5356 24.3638 74.0873 23.8743C73.639 23.3848 73.0448 23.1094 72.4255 23.1043Z" fill="#407BFF"/>
<path d="M78.7938 28.2504C77.7186 28.2504 76.7512 26.9762 76.591 25.3068C76.4999 24.5104 76.6304 23.7015 76.9638 22.995C77.0901 22.6812 77.2851 22.4103 77.5297 22.2083C77.7744 22.0063 78.0605 21.8802 78.3603 21.8422C78.66 21.8042 78.9632 21.8556 79.2405 21.9914C79.5178 22.1272 79.7598 22.3428 79.943 22.6173C80.405 23.2277 80.6865 23.99 80.7471 24.795C80.9196 26.5597 80.1309 28.1127 78.9787 28.2574C78.917 28.2527 78.8554 28.2504 78.7938 28.2504ZM78.5442 22.2502C78.4971 22.2466 78.4497 22.2466 78.4025 22.2502C78.1651 22.292 77.94 22.3988 77.7463 22.5617C77.5527 22.7245 77.3962 22.9385 77.2903 23.1855C76.9971 23.8132 76.8829 24.5303 76.9638 25.2362C77.1116 26.7645 77.9928 27.9115 78.9386 27.7915C79.8844 27.6715 80.5222 26.3303 80.3743 24.8021C80.3184 24.0935 80.0694 23.4231 79.6626 22.8855C79.5244 22.698 79.3535 22.5456 79.1609 22.4381C78.9684 22.3305 78.7583 22.2701 78.5442 22.2608V22.2502Z" fill="#407BFF"/>
<path d="M75.0782 25.5005L74.8071 25.204C75.1892 24.7417 76.1165 24.0675 76.8806 24.8193L76.6341 25.144C75.9532 24.4664 75.1121 25.4511 75.0782 25.5005Z" fill="#407BFF"/>
<path d="M62.7239 27.8972L62.3757 27.7419C62.4374 27.5549 63.0104 25.9031 63.8299 25.6454C64.5971 25.4019 69.6528 25.2925 69.8654 25.2925V25.7231C68.4174 25.7513 64.517 25.8643 63.9254 26.0513C63.3801 26.2313 62.8687 27.4455 62.7239 27.8972Z" fill="#407BFF"/>
<path d="M65.6785 27.5758C65.6785 27.5758 63.5896 24.4628 62.348 25.3275C61.1064 26.1923 62.764 30.7806 64.2828 31.3277C64.4746 31.4149 64.6797 31.4566 64.886 31.4501C65.0922 31.4437 65.2951 31.3893 65.4824 31.2903C65.6697 31.1913 65.8374 31.0497 65.9755 30.8741C66.1135 30.6985 66.219 30.4925 66.2854 30.2688L65.6785 27.5758Z" fill="#EB9481"/>
<path d="M62.8502 26.6304C62.8462 26.6322 62.8428 26.6354 62.8404 26.6395C62.838 26.6435 62.8367 26.6484 62.8367 26.6533C62.8367 26.6583 62.838 26.6631 62.8404 26.6672C62.8428 26.6713 62.8462 26.6744 62.8502 26.6763C63.9193 27.1104 64.5139 28.1939 64.9452 29.3269C64.6156 28.8998 64.1812 28.6775 63.679 29.1293C63.6745 29.1353 63.6718 29.1427 63.6711 29.1506C63.6704 29.1584 63.6719 29.1663 63.6752 29.1732C63.6786 29.1801 63.6837 29.1857 63.6898 29.1892C63.696 29.1927 63.703 29.1939 63.7098 29.1928C63.8913 29.1139 64.0898 29.1025 64.2773 29.1601C64.4648 29.2178 64.6316 29.3416 64.7542 29.514C64.959 29.8011 65.1366 30.1122 65.2841 30.4422C65.3365 30.5481 65.506 30.4811 65.4628 30.361V30.3328C65.4135 28.801 64.2921 26.7115 62.8502 26.6304Z" fill="#263238"/>
<path d="M65.1085 30.8444C65.1085 30.9142 65.0904 30.9825 65.0566 31.0405C65.0227 31.0985 64.9746 31.1438 64.9183 31.1705C64.862 31.1972 64.8001 31.2042 64.7403 31.1906C64.6805 31.177 64.6256 31.1433 64.5825 31.094C64.5395 31.0446 64.5101 30.9817 64.4982 30.9133C64.4863 30.8448 64.4924 30.7738 64.5158 30.7093C64.5391 30.6448 64.5786 30.5897 64.6292 30.5509C64.6799 30.5122 64.7395 30.4915 64.8004 30.4915C64.8821 30.4915 64.9605 30.5286 65.0183 30.5948C65.076 30.661 65.1085 30.7508 65.1085 30.8444Z" fill="white"/>
<path d="M64.2181 30.2375C64.2181 30.2983 64.197 30.3567 64.1595 30.3997C64.1219 30.4427 64.071 30.4669 64.0179 30.4669C63.9648 30.4669 63.9138 30.4427 63.8763 30.3997C63.8387 30.3567 63.8176 30.2983 63.8176 30.2375C63.8176 30.1766 63.8387 30.1183 63.8763 30.0753C63.9138 30.0322 63.9648 30.0081 64.0179 30.0081C64.071 30.0081 64.1219 30.0322 64.1595 30.0753C64.197 30.1183 64.2181 30.1766 64.2181 30.2375Z" fill="white"/>
<path d="M70.9714 52.713C70.9714 52.713 68.861 49.5365 70.8728 48.0541C72.8846 46.5717 74.5237 50.1188 74.5237 50.1188L70.9714 52.713Z" fill="#455A64"/>
<path d="M87.6606 73.7029L87.9532 77.603L88.058 78.8878L87.0721 78.2489L84.1083 76.2971L70.9005 52.5789L74.4559 49.9812L87.6636 73.7029H87.6606Z" fill="#455A64"/>
<path d="M87.9564 77.6064L88.058 78.8947L87.0721 78.2523L87.9564 77.6064Z" fill="#37474F"/>
<path d="M74.6761 49.6422L70.5283 52.6741L71.0536 53.6173L75.2014 50.5854L74.6761 49.6422Z" fill="#263238"/>
<path d="M75.2557 50.6888L71.1079 53.7207L71.6332 54.6639L75.781 51.632L75.2557 50.6888Z" fill="#263238"/>
<path d="M71.6339 54.658L72.971 53.6768L77.0131 62.797L76.5017 63.1252L71.6339 54.658Z" fill="#263238"/>
<path d="M57.6435 45.5905C47.3194 58.1273 35.5135 79.4066 40.3043 84.1256C44.676 88.4386 61.0109 84.8315 71.3134 80.5008C73.2759 79.6749 65.7493 59.7685 63.7437 60.8944C61.6261 62.1073 59.4447 63.1682 57.2122 64.071C56.6484 64.2298 59.5444 56.6308 63.0998 47.4153C67.0679 37.148 63.5557 38.4221 57.6435 45.5905Z" fill="#EB9481"/>
<path d="M88.6033 60.0226C88.5725 62.3168 83.6461 61.745 83.6461 61.745C84.3551 62.3066 84.8706 63.1343 85.1034 64.0851C85.4454 65.7827 83.2548 67.1416 83.2548 67.1416C83.8859 67.8997 84.3035 68.8576 84.4533 69.8911C84.6351 71.5535 82.6048 73.2829 82.6048 73.2829C82.8463 74.3461 82.7468 75.4732 82.3244 76.4595C81.0921 79.0395 77.1608 79.0007 74.7146 79.5266C71.9749 80.1854 69.2859 81.0954 66.6735 82.2478L62.5266 61.5509C62.5266 61.5509 73.2204 54.6225 76.1688 54.8448C78.6859 55.0496 88.6587 56.5213 88.6033 60.0226Z" fill="#EB9481"/>
<path d="M83.6123 61.6816C81.012 60.7462 78.2269 60.5274 75.5342 60.3474C75.4726 60.3474 75.4695 60.4533 75.5342 60.4533C78.2146 60.598 80.9258 61.5616 83.5938 61.8263C83.6091 61.8259 83.6239 61.8194 83.6354 61.8078C83.6469 61.7962 83.6544 61.7803 83.6566 61.7629C83.6588 61.7455 83.6556 61.7278 83.6475 61.7129C83.6394 61.698 83.6269 61.6869 83.6123 61.6816Z" fill="#263238"/>
<path d="M83.2088 66.9088C82.6017 66.7599 81.9801 66.7041 81.3602 66.7429C80.7009 66.7429 80.0447 66.7429 79.3854 66.764C78.0709 66.8041 76.7564 66.8805 75.4418 66.9935C75.3833 66.9935 75.3741 67.0994 75.4418 67.0994C76.7543 67.0641 78.0668 67.0499 79.3792 67.0782C80.0344 67.0923 80.6907 67.1123 81.3479 67.1382C81.963 67.2086 82.583 67.2004 83.1964 67.1135C83.2166 67.1092 83.235 67.0974 83.2487 67.0799C83.2624 67.0623 83.2706 67.0401 83.272 67.0166C83.2734 66.9931 83.268 66.9698 83.2565 66.9503C83.2451 66.9307 83.2283 66.9161 83.2088 66.9088Z" fill="#263238"/>
<path d="M82.5802 73.2794C82.0688 73.0923 81.4341 73.2088 80.9073 73.237C80.3076 73.2676 79.7078 73.2947 79.1081 73.3182C77.9065 73.3676 76.7081 73.4135 75.5096 73.4135C75.499 73.4166 75.4896 73.4237 75.4829 73.4336C75.4762 73.4435 75.4725 73.4557 75.4725 73.4682C75.4725 73.4808 75.4762 73.4929 75.4829 73.5029C75.4896 73.5128 75.499 73.5198 75.5096 73.5229C76.742 73.5229 77.9497 73.5547 79.1666 73.5512C79.7674 73.5512 80.3651 73.5512 80.9628 73.53C81.4742 73.53 82.1089 73.5759 82.5895 73.35C82.5951 73.346 82.5996 73.3402 82.6024 73.3333C82.6052 73.3264 82.6062 73.3187 82.6052 73.3112C82.6042 73.3037 82.6013 73.2967 82.5969 73.291C82.5924 73.2854 82.5867 73.2813 82.5802 73.2794Z" fill="#263238"/>
<path d="M62.7239 40.0813C55.3298 44.9414 35.8062 74.4444 39.0011 82.8764C42.1959 91.3084 65.8695 83.0282 65.8695 83.0282L64.4338 60.397C64.4338 60.397 58.1673 64.1348 57.9639 63.7712C57.7606 63.4077 61.661 53.2392 63.2261 49.1027C64.7912 44.9661 66.6582 37.5012 62.7239 40.0813Z" fill="#EBEBEB"/>
<path d="M62.9396 81.6407C62.5914 78.6442 61.5501 66.3298 61.4823 63.6403C61.4823 63.4532 61.5809 63.4038 61.6055 63.5979C62.8379 72.5452 62.8379 78.6512 63.0443 81.5984C63.0474 81.6937 62.9488 81.7184 62.9396 81.6407Z" fill="#263238"/>
<path d="M64.289 60.4107C63.5986 60.6746 62.9271 60.9991 62.2802 61.3813C61.6918 61.6919 61.1033 62.0025 60.5211 62.3236C59.2517 63.0295 57.9978 63.7354 56.747 64.4908C55.4961 65.2461 54.2545 65.9837 53.0222 66.7602C51.7898 67.5367 50.6006 68.3908 49.3713 69.1709C49.3159 69.2062 49.3713 69.3015 49.4237 69.2662C50.6745 68.5108 51.9685 67.8544 53.2317 67.1485L56.9503 65.0308C58.1827 64.3249 59.4335 63.6366 60.6689 62.9131C61.2851 62.5601 61.8797 62.2072 62.4836 61.8542C63.1464 61.5126 63.7878 61.1187 64.403 60.6754C64.4216 60.6518 64.4335 60.6223 64.4374 60.5908C64.4412 60.5593 64.4366 60.5272 64.4244 60.4987C64.4121 60.4702 64.3926 60.4466 64.3685 60.4309C64.3443 60.4152 64.3166 60.4081 64.289 60.4107Z" fill="#263238"/>
<path d="M62.4159 53.8565C62.0246 54.3965 61.6364 54.9401 61.2667 55.5013C61.1989 55.6036 61.1373 55.713 61.0695 55.8189L61.3776 54.9436C61.7819 53.9353 62.1368 52.9019 62.4405 51.8482C62.4405 51.7988 62.3912 51.7776 62.3697 51.8165C61.8798 52.8306 61.4386 53.8745 61.0479 54.9436C60.6351 55.9672 60.213 56.9907 59.8156 58.0213C59.4182 59.0519 59.0084 60.0861 58.6295 61.1308C58.221 62.1405 57.8781 63.1834 57.6035 64.2509C57.6035 64.3144 57.6651 64.3391 57.6959 64.2897C58.2149 63.2959 58.6681 62.2588 59.0515 61.1873C59.4613 60.1567 59.8433 59.1155 60.2377 58.0813C60.404 57.6472 60.5612 57.2095 60.7214 56.7719L60.9186 56.4789C61.1034 56.2107 61.2759 55.9319 61.4454 55.653C61.7935 55.0707 62.117 54.4777 62.4374 53.8883C62.4396 53.8846 62.4407 53.8802 62.4406 53.8757C62.4404 53.8713 62.4391 53.867 62.4367 53.8635C62.4343 53.8599 62.431 53.8574 62.4273 53.8561C62.4235 53.8549 62.4195 53.855 62.4159 53.8565Z" fill="#263238"/>
<path d="M69.1537 57.6192L68.6269 57.9121L64.3937 51.3402L64.3013 51.199L64.366 51.0437L65.9064 47.2001L61.51 46.9566H61.2913L61.3744 46.7342C62.271 44.2636 63.146 41.8106 64.061 39.3611C63.3 41.7894 62.5205 44.2071 61.7287 46.6283L66.2361 46.7518H66.5442L66.4179 47.0836L64.8774 51.1319L69.1537 57.6192Z" fill="#DBDBDB"/>
<path d="M61.5316 46.6138H61.7411L61.6672 46.8432L61.5316 46.6138Z" fill="#DBDBDB"/>
<path d="M64.8065 50.9944L64.8959 51.132L64.8373 51.2909L64.8065 50.9944Z" fill="#DBDBDB"/>
<path d="M66.0481 46.8862L66.233 47.2251L65.9187 47.2074L66.0481 46.8862Z" fill="#DBDBDB"/>
<path d="M97.7814 86.3422L77.087 88.061L84.8232 56.8497L105.514 55.1309L97.7814 86.3422Z" fill="white"/>
<path d="M99.1954 86.2253L78.5042 87.9442L86.2403 56.7329L106.932 55.0105L99.1954 86.2253Z" fill="#455A64"/>
<path d="M88.44 56.5604C88.3868 56.829 88.2879 57.083 88.1488 57.3077C88.0098 57.5324 87.8334 57.7234 87.6297 57.8699C87.4418 58.0075 87.3679 57.7181 87.5558 57.5875C87.8168 57.3895 88.0112 57.0958 88.1073 56.7546C88.1239 56.6994 88.1363 56.6427 88.1443 56.5851C88.1891 56.3944 88.1891 56.1935 88.1443 56.0028C88.1241 55.9217 88.0793 55.8516 88.0179 55.8051C88.0128 55.8062 88.0076 55.8062 88.0025 55.8051C88.0025 55.8051 87.981 55.8051 87.9779 55.8051H87.9378C87.8885 55.7961 87.8379 55.8048 87.793 55.8298C87.7049 55.8733 87.6268 55.9398 87.565 56.0239C87.4894 56.1312 87.4272 56.25 87.3802 56.3769C87.3494 56.4334 87.3278 56.4934 87.3001 56.5569V56.5993C87.289 56.6184 87.2816 56.6401 87.2785 56.6628C87.2772 56.6769 87.2772 56.6911 87.2785 56.7051L86.9858 56.7298C87.0418 56.5143 87.1237 56.3088 87.2292 56.1192C87.3082 55.9561 87.4167 55.8141 87.5474 55.7027C87.6781 55.5913 87.828 55.5131 87.9871 55.4733C88.1038 55.4612 88.2201 55.501 88.3119 55.5844C88.4037 55.6679 88.4639 55.7886 88.4801 55.9216C88.5096 56.1352 88.4959 56.3538 88.44 56.5604Z" fill="#407BFF"/>
<path d="M90.0576 56.4195C89.9487 56.9603 89.6588 57.4305 89.2504 57.7289C89.0593 57.8666 88.9885 57.5772 89.1764 57.4466C89.4374 57.2486 89.6318 56.9549 89.7279 56.6136C89.7279 56.5607 89.7556 56.4971 89.7649 56.4407C89.8098 56.2512 89.8098 56.0513 89.7649 55.8618C89.7446 55.7789 89.6986 55.7074 89.6355 55.6606H89.6077H89.5677C89.5194 55.6515 89.4697 55.6601 89.426 55.6854C89.3373 55.7278 89.259 55.7944 89.198 55.8795C89.1225 55.9804 89.0602 56.0933 89.0131 56.2148C88.9816 56.2718 88.9548 56.332 88.933 56.3948V56.4371C88.9245 56.4577 88.9173 56.4789 88.9115 56.5007C88.9115 56.5007 88.9115 56.5289 88.9115 56.5395L88.6188 56.5642C88.6753 56.3501 88.7572 56.1458 88.8622 55.9571C88.9394 55.7923 89.0473 55.649 89.1783 55.5374C89.3093 55.4258 89.4601 55.3486 89.6201 55.3112C89.7368 55.2991 89.8531 55.3388 89.9449 55.4223C90.0367 55.5058 90.0969 55.6265 90.113 55.7595C90.1419 55.9814 90.1228 56.208 90.0576 56.4195Z" fill="#407BFF"/>
<path d="M91.6843 56.2818C91.5754 56.8244 91.2843 57.2961 90.874 57.5947C90.6861 57.7324 90.6152 57.4394 90.8032 57.3088C91.0639 57.1122 91.2584 56.8196 91.3546 56.4794C91.3546 56.4229 91.3824 56.3629 91.3916 56.3065C91.4349 56.1167 91.4349 55.9174 91.3916 55.7276C91.3699 55.6456 91.3242 55.5745 91.2622 55.5265H91.2376H91.1975C91.1482 55.5175 91.0976 55.5261 91.0527 55.5512C90.9643 55.5925 90.8868 55.6594 90.8278 55.7453C90.7531 55.8463 90.69 55.9578 90.6399 56.0771C90.609 56.1335 90.5875 56.1971 90.5598 56.2606V56.3029C90.5499 56.3228 90.5427 56.3442 90.5382 56.3665C90.5382 56.3665 90.5382 56.3947 90.5382 56.4053L90.2301 56.43C90.2893 56.217 90.371 56.0131 90.4735 55.8229C90.5515 55.6589 90.6597 55.5162 90.7906 55.4047C90.9214 55.2932 91.0718 55.2155 91.2314 55.177C91.348 55.1647 91.4643 55.2039 91.5565 55.2866C91.6487 55.3692 91.7098 55.4891 91.7274 55.6217C91.7589 55.8426 91.7441 56.0688 91.6843 56.2818Z" fill="#407BFF"/>
<path d="M93.2987 56.1473C93.1898 56.69 92.8987 57.1617 92.4884 57.4603C92.3005 57.598 92.2265 57.305 92.4144 57.1744C92.6752 56.9777 92.8697 56.6852 92.9659 56.345C92.9826 56.2887 92.995 56.2308 93.0029 56.172C93.0498 55.9828 93.0498 55.7824 93.0029 55.5932C92.9834 55.5109 92.9385 55.4394 92.8766 55.392H92.8612C92.8612 55.392 92.8396 55.392 92.8365 55.392C92.8233 55.3944 92.8097 55.3944 92.7965 55.392C92.7469 55.3862 92.6968 55.3959 92.6517 55.4203C92.5624 55.4615 92.4839 55.5283 92.4237 55.6144C92.3493 55.7149 92.2871 55.8265 92.2388 55.9462C92.208 56.0026 92.1865 56.0662 92.1587 56.1297V56.172C92.1482 56.1902 92.1408 56.2106 92.1372 56.2321C92.1358 56.2461 92.1358 56.2603 92.1372 56.2744L91.8445 56.2991C91.9004 56.0847 91.9824 55.8804 92.0879 55.692C92.1659 55.528 92.2741 55.3853 92.4049 55.2738C92.5358 55.1623 92.6862 55.0846 92.8458 55.0461C92.962 55.0339 93.0779 55.0732 93.1696 55.1559C93.2613 55.2387 93.3219 55.3585 93.3387 55.4909C93.3707 55.7102 93.357 55.9352 93.2987 56.1473Z" fill="#407BFF"/>
<path d="M94.9161 56.0131C94.8079 56.5552 94.518 57.0268 94.1089 57.326C93.9179 57.4637 93.847 57.1707 94.0349 57.0401C94.2957 56.8435 94.4902 56.5509 94.5864 56.2107C94.5864 56.1542 94.6141 56.0942 94.6234 56.0378C94.6683 55.8471 94.6683 55.6461 94.6234 55.4554C94.6024 55.3738 94.5565 55.3036 94.494 55.2578C94.494 55.2578 94.4724 55.2578 94.4663 55.2578C94.453 55.2601 94.4395 55.2601 94.4262 55.2578C94.3776 55.2516 94.3284 55.2614 94.2845 55.286C94.1952 55.3272 94.1167 55.3941 94.0565 55.4801C93.9804 55.5792 93.9181 55.6911 93.8716 55.8119C93.8401 55.8701 93.8133 55.9315 93.7915 55.9954V56.0378C93.783 56.0571 93.7758 56.0772 93.77 56.0978C93.77 56.0978 93.77 56.126 93.77 56.1401L93.4773 56.1648C93.5332 55.9504 93.6152 55.7461 93.7207 55.5578C93.7979 55.393 93.9058 55.2497 94.0368 55.1381C94.1678 55.0264 94.3186 54.9492 94.4786 54.9119C94.5948 54.8996 94.7107 54.9389 94.8024 55.0216C94.8941 55.1044 94.9547 55.2243 94.9715 55.3566C94.9999 55.5773 94.9808 55.8026 94.9161 56.0131Z" fill="#407BFF"/>
<path d="M96.5366 55.8791C96.4284 56.4212 96.1385 56.8928 95.7294 57.1921C95.5384 57.3297 95.4675 57.0368 95.6555 56.9062C95.9162 56.7095 96.1107 56.417 96.2069 56.0768C96.2069 56.0203 96.2347 55.9568 96.2439 55.9038C96.2872 55.7129 96.2872 55.5124 96.2439 55.3215C96.2211 55.2409 96.1756 55.1714 96.1145 55.1238H96.0991C96.0991 55.1238 96.0775 55.1238 96.0745 55.1238H96.0344C95.9851 55.1148 95.9345 55.1235 95.8896 55.1485C95.8017 55.1924 95.7245 55.2603 95.6647 55.3462C95.5888 55.4461 95.5255 55.5578 95.4768 55.6779C95.446 55.7344 95.4244 55.7979 95.3967 55.8615V55.9003C95.3868 55.9202 95.3796 55.9416 95.3751 55.9638C95.3751 55.9638 95.3751 55.9921 95.3751 56.0062L95.067 56.0309C95.1262 55.8168 95.2079 55.6117 95.3104 55.4203C95.3889 55.2571 95.4973 55.1152 95.6281 55.0043C95.7589 54.8934 95.9091 54.8162 96.0683 54.7779C96.185 54.7647 96.3017 54.8036 96.3941 54.8864C96.4865 54.9692 96.5475 55.0896 96.5643 55.2226C96.6003 55.4409 96.5908 55.6658 96.5366 55.8791Z" fill="#407BFF"/>
<path d="M98.1541 55.7448C98.0452 56.2875 97.7541 56.7592 97.3439 57.0578C97.1559 57.1954 97.082 56.9025 97.2699 56.7719C97.5307 56.5752 97.7252 56.2827 97.8214 55.9425C97.8377 55.886 97.8501 55.8282 97.8584 55.7695C97.9049 55.5791 97.9049 55.3776 97.8584 55.1872C97.8368 55.1069 97.7923 55.0373 97.7321 54.9895C97.727 54.9906 97.7217 54.9906 97.7166 54.9895C97.7166 54.9895 97.6951 54.9895 97.692 54.9895H97.6519C97.6026 54.9805 97.5521 54.9891 97.5071 55.0142C97.419 55.0577 97.3409 55.1242 97.2792 55.2083C97.2047 55.3101 97.1425 55.4229 97.0943 55.5436C97.0635 55.6001 97.0419 55.6636 97.0142 55.7272V55.766C97.0031 55.7851 96.9957 55.8068 96.9926 55.8295C96.9913 55.8436 96.9913 55.8578 96.9926 55.8719L96.7 55.8966C96.7559 55.6811 96.8378 55.4755 96.9433 55.286C97.0219 55.1227 97.1303 54.9808 97.2611 54.87C97.3919 54.7591 97.542 54.6819 97.7012 54.6436C97.8176 54.6305 97.9339 54.6694 98.0258 54.7523C98.1177 54.8352 98.178 54.9556 98.1942 55.0883C98.2262 55.3077 98.2124 55.5327 98.1541 55.7448Z" fill="#407BFF"/>
<path d="M99.7747 55.6108C99.6658 56.1516 99.376 56.6218 98.9675 56.9202C98.7765 57.0579 98.7057 56.7685 98.8936 56.6379C99.1545 56.4399 99.349 56.1462 99.4451 55.8049C99.4451 55.752 99.4728 55.6884 99.482 55.6355C99.5269 55.4448 99.5269 55.2438 99.482 55.0531C99.4611 54.9715 99.4152 54.9014 99.3527 54.8555C99.3527 54.8555 99.3311 54.8555 99.3249 54.8555H99.2849C99.2365 54.8463 99.1869 54.8549 99.1431 54.8802C99.055 54.9237 98.9769 54.9901 98.9152 55.0743C98.8397 55.1752 98.7774 55.2882 98.7303 55.4096C98.7006 55.4678 98.6738 55.5279 98.6502 55.5896V55.632C98.6417 55.6525 98.6345 55.6738 98.6286 55.6955C98.6286 55.6955 98.6286 55.7237 98.6286 55.7379L98.3206 55.7626C98.3765 55.547 98.4584 55.3415 98.5639 55.152C98.6426 54.9885 98.751 54.8463 98.8818 54.7348C99.0125 54.6234 99.1626 54.5454 99.3218 54.5061C99.4385 54.4939 99.5549 54.5337 99.6466 54.6171C99.7384 54.7006 99.7986 54.8213 99.8148 54.9543C99.8481 55.1736 99.8343 55.3989 99.7747 55.6108Z" fill="#407BFF"/>
<path d="M101.395 55.4764C101.286 56.0172 100.996 56.4874 100.588 56.7859C100.397 56.9235 100.326 56.6341 100.514 56.5035C100.775 56.3055 100.97 56.0118 101.066 55.6705C101.066 55.6176 101.093 55.5541 101.103 55.5011C101.146 55.3102 101.146 55.1097 101.103 54.9188C101.08 54.8372 101.034 54.7665 100.973 54.7176H100.958C100.958 54.7176 100.936 54.7176 100.933 54.7176H100.893C100.844 54.7086 100.793 54.7172 100.748 54.7423C100.661 54.7862 100.584 54.8527 100.523 54.9364C100.448 55.0381 100.385 55.1509 100.335 55.2717C100.305 55.3282 100.283 55.3882 100.255 55.4517V55.4941C100.245 55.5139 100.238 55.5353 100.234 55.5576C100.234 55.5576 100.234 55.5858 100.234 55.5999L99.9257 55.6211C99.9848 55.4081 100.067 55.2042 100.169 55.014C100.248 54.8504 100.356 54.7081 100.487 54.5966C100.617 54.4852 100.768 54.4073 100.927 54.3681C101.044 54.3559 101.161 54.3956 101.253 54.479C101.345 54.5624 101.406 54.6831 101.423 54.8164C101.459 55.0358 101.45 55.262 101.395 55.4764Z" fill="#407BFF"/>
<path d="M103.016 55.3428C102.906 55.8842 102.615 56.3545 102.205 56.6523C102.017 56.7899 101.947 56.5005 102.131 56.3699C102.392 56.1719 102.587 55.8782 102.683 55.537C102.7 55.4808 102.712 55.4229 102.72 55.364C102.767 55.1748 102.767 54.9744 102.72 54.7852C102.7 54.7028 102.656 54.6314 102.594 54.584C102.594 54.584 102.594 54.584 102.578 54.584H102.554H102.514C102.464 54.575 102.414 54.5836 102.369 54.6087C102.279 54.6499 102.201 54.7168 102.141 54.8028C102.067 54.9039 102.005 55.0154 101.956 55.1346C101.925 55.1946 101.903 55.2546 101.876 55.3181V55.3605C101.865 55.3796 101.857 55.4013 101.854 55.424C101.854 55.424 101.854 55.4522 101.854 55.4628L101.562 55.4875C101.618 55.2734 101.7 55.0691 101.805 54.8805C101.883 54.7164 101.991 54.5737 102.122 54.4622C102.253 54.3507 102.403 54.273 102.563 54.2346C102.68 54.2224 102.796 54.2622 102.888 54.3456C102.979 54.4291 103.04 54.5498 103.056 54.6828C103.088 54.9033 103.074 55.1296 103.016 55.3428Z" fill="#407BFF"/>
<path d="M104.624 55.205C104.516 55.7471 104.226 56.2187 103.817 56.5179C103.626 56.6556 103.555 56.3626 103.743 56.232C104.004 56.0354 104.198 55.7428 104.294 55.4026C104.294 55.3461 104.322 55.2861 104.331 55.2297C104.376 55.0402 104.376 54.8403 104.331 54.6508C104.311 54.5679 104.265 54.4964 104.202 54.4497C104.202 54.4497 104.18 54.4497 104.174 54.4497C104.161 54.452 104.147 54.452 104.134 54.4497C104.085 54.4435 104.036 54.4533 103.992 54.4779C103.903 54.5191 103.825 54.586 103.764 54.672C103.69 54.7722 103.627 54.8838 103.58 55.0038C103.549 55.0628 103.522 55.1241 103.499 55.1873V55.2297C103.491 55.2502 103.484 55.2715 103.478 55.2932C103.478 55.2932 103.478 55.3214 103.478 55.332L103.185 55.3567C103.241 55.1423 103.323 54.938 103.429 54.7497C103.506 54.5853 103.614 54.4424 103.745 54.3308C103.876 54.2193 104.027 54.1418 104.186 54.1038C104.303 54.0915 104.419 54.1308 104.51 54.2135C104.602 54.2963 104.663 54.4162 104.679 54.5485C104.708 54.7692 104.689 54.9945 104.624 55.205Z" fill="#407BFF"/>
<path d="M106.254 55.0705C106.146 55.6126 105.856 56.0842 105.447 56.3835C105.256 56.5211 105.185 56.2282 105.373 56.0976C105.633 55.9009 105.828 55.6084 105.924 55.2682C105.924 55.2117 105.952 55.1517 105.961 55.0952C106.004 54.9043 106.004 54.7038 105.961 54.5129C105.938 54.4324 105.893 54.3628 105.832 54.3152C105.832 54.3152 105.81 54.3152 105.807 54.3152C105.794 54.3176 105.78 54.3176 105.767 54.3152C105.717 54.3094 105.667 54.3191 105.622 54.3435C105.534 54.3848 105.456 54.4517 105.397 54.5376C105.321 54.6375 105.258 54.7492 105.209 54.8693C105.179 54.9258 105.157 54.9893 105.129 55.0529V55.0952C105.12 55.1142 105.113 55.1343 105.108 55.1552C105.108 55.1552 105.108 55.1835 105.108 55.1976L104.8 55.2223C104.858 55.009 104.94 54.8051 105.043 54.6152C105.121 54.4512 105.229 54.3085 105.36 54.197C105.491 54.0855 105.641 54.0078 105.801 53.9693C105.918 53.9561 106.034 53.995 106.127 54.0778C106.219 54.1606 106.28 54.281 106.297 54.414C106.328 54.6337 106.313 54.8586 106.254 55.0705Z" fill="#407BFF"/>
<path d="M105.915 62.0308C107.009 64.5967 109.735 67.7662 109.975 69.8698C110.051 70.3865 109.98 70.9174 109.772 71.384C109.564 71.8506 109.23 72.2281 108.82 72.4604C108.82 72.4604 110.669 73.484 110.613 75.4358C110.585 76.4382 109.159 77.2711 109.159 77.2711C109.159 77.2711 110.607 78.1641 110.465 79.8971C110.351 81.2771 108.94 81.9018 108.94 81.9018C108.94 81.9018 109.979 83.5042 109.47 84.8666C108.438 87.6302 98.0524 87.7678 96.4041 83.4089C95.6339 81.3759 98.1726 81.4995 98.1726 81.4995C98.1726 81.4995 94.5618 80.31 94.4755 77.857C94.3892 75.404 97.6858 75.7958 97.6858 75.7958C97.6858 75.7958 94.1921 74.6099 94.3338 72.0581C94.4817 69.4003 97.7228 70.4345 97.7228 70.4345C97.7228 70.4345 95.3967 68.6697 95.8958 66.7462C96.7184 63.5696 101.133 67.4944 103.407 66.8415L104.624 62.5143L105.915 62.0308Z" fill="#EB9481"/>
<path d="M108.035 65.7371C107.181 63.2029 109.902 60.0264 109.39 57.4675C108.7 54.0086 105.326 57.4675 104.621 62.5006L104.673 66.5277L108.035 65.7371Z" fill="#EB9481"/>
<path d="M108.731 82.0396C108.736 82.0418 108.741 82.0458 108.744 82.0512C108.748 82.0566 108.749 82.063 108.749 82.0696C108.749 82.0762 108.748 82.0826 108.744 82.088C108.741 82.0934 108.736 82.0974 108.731 82.0996C105.323 83.0984 101.315 82.9996 98.0247 81.5102C97.9169 81.4608 97.9385 81.2384 98.0679 81.2666C101.722 82.0608 105.015 82.4314 108.731 82.0396Z" fill="#263238"/>
<path d="M109.208 77.2927C109.248 77.2927 109.258 77.3668 109.208 77.3774C105.693 78.3868 101.179 78.1327 97.5625 75.9056C97.4393 75.828 97.3962 75.6162 97.544 75.6938C100.052 76.9645 105.856 77.6668 109.208 77.2927Z" fill="#263238"/>
<path d="M97.5009 70.1766C101.041 72.1602 104.778 72.6473 108.678 72.5096C108.731 72.5096 108.728 72.5873 108.678 72.6049C106.787 73.2649 104.291 73.0567 102.363 72.7037C100.566 72.4155 98.8661 71.5929 97.4332 70.3178C97.3839 70.2684 97.4239 70.1343 97.5009 70.1766Z" fill="#263238"/>
<path d="M88.8929 31.7235H86.7363V29.0481H84.401V26.5775H86.7363V23.9021H88.8929V26.5598H91.2283V29.0305H88.8929V31.7235ZM87.0444 31.3705H88.5849V28.6952H90.9202V26.9304H88.5849V24.255H87.0444V26.9128H84.7091V28.6775H87.0444V31.3705Z" fill="#407BFF"/>
<path d="M45.4863 55.7382H43.3297V53.0629H40.9944V50.5922H43.3143V47.9133H45.4709V50.5922H47.8093V53.0629H45.4709L45.4863 55.7382ZM43.6378 55.3853H45.1782V52.7099H47.5166V50.9452H45.1782V48.2663H43.6378V50.9452H41.3025V52.7099H43.6224L43.6378 55.3853Z" fill="#407BFF"/>
</g>
<path d="M176.227 140.802H141.166V87.8882H176.227V140.802Z" fill="#03254E"/>
<path d="M172.903 91.2798H144.491V137.407H172.903V91.2798Z" fill="white"/>
<path d="M155.135 91.2798H144.491V137.407H155.135V91.2798Z" fill="#FFFCFC"/>
<path d="M151.475 100.615C151.221 100.796 150.943 100.928 150.652 101.007C149.919 101.212 149.144 101.075 148.499 100.626C147.853 100.177 147.389 99.454 147.208 98.6141C147.083 98.0292 147.102 97.4161 147.262 96.8427C147.423 96.2693 147.718 95.7578 148.116 95.3648C148.515 94.9719 149 94.7127 149.519 94.6161C150.038 94.5194 150.57 94.589 151.056 94.8171C151.542 95.0452 151.964 95.423 152.275 95.9087C152.586 96.3944 152.773 96.969 152.816 97.5691C152.86 98.1692 152.757 98.7713 152.521 99.3089C152.284 99.8465 151.922 100.299 151.475 100.615Z" fill="#A6A6A6"/>
<path d="M150.837 97.4632C150.838 97.6602 150.788 97.853 150.692 98.0172C150.597 98.1813 150.462 98.3094 150.303 98.3853C150.144 98.4612 149.97 98.4814 149.801 98.4434C149.632 98.4054 149.477 98.3109 149.355 98.1718C149.233 98.0327 149.15 97.8554 149.117 97.6622C149.083 97.4691 149.1 97.2688 149.166 97.0867C149.231 96.9046 149.343 96.749 149.486 96.6394C149.628 96.5299 149.797 96.4714 149.969 96.4714C150.198 96.4714 150.419 96.5758 150.582 96.7617C150.745 96.9476 150.837 97.1999 150.837 97.4632Z" fill="white"/>
<path d="M151.475 100.206V100.615C151.221 100.796 150.943 100.928 150.652 101.007C150.285 101.112 149.904 101.131 149.53 101.063C149.156 100.995 148.798 100.842 148.477 100.612V100.206C148.468 99.9739 148.5 99.7421 148.571 99.5246C148.642 99.3071 148.751 99.1084 148.892 98.9405C149.032 98.7726 149.2 98.6389 149.386 98.5476C149.573 98.4563 149.773 98.4092 149.976 98.4092C150.179 98.4092 150.38 98.4563 150.566 98.5476C150.752 98.6389 150.921 98.7726 151.061 98.9405C151.201 99.1084 151.31 99.3071 151.381 99.5246C151.452 99.7421 151.484 99.9739 151.475 100.206Z" fill="white"/>
<path d="M164.683 95.1799H157.015V95.787H164.683V95.1799Z" fill="#EBEBEB"/>
<path d="M170.265 96.8596H157.015V97.4667H170.265V96.8596Z" fill="#EBEBEB"/>
<path d="M167.311 98.5361H157.015V99.1432H167.311V98.5361Z" fill="#EBEBEB"/>
<path d="M162.958 101.893H157.015V102.5H162.958V101.893Z" fill="#EBEBEB"/>
<path d="M167.311 103.573H157.015V104.18H167.311V103.573Z" fill="#EBEBEB"/>
<path d="M170.265 105.253H157.015V105.86H170.265V105.253Z" fill="#EBEBEB"/>
<path d="M164.683 106.929H157.015V107.536H164.683V106.929Z" fill="#EBEBEB"/>
<path d="M170.265 110.29H157.015V110.897H170.265V110.29Z" fill="#EBEBEB"/>
<path d="M166.627 111.966H157.015V112.573H166.627V111.966Z" fill="#EBEBEB"/>
<path d="M164.153 113.646H157.015V114.253H164.153V113.646Z" fill="#EBEBEB"/>
<path d="M168.95 115.326H157.015V115.933H168.95V115.326Z" fill="#EBEBEB"/>
<path d="M166.627 118.683H157.015V119.29H166.627V118.683Z" fill="#EBEBEB"/>
<path d="M170.265 120.362H157.015V120.969H170.265V120.362Z" fill="#EBEBEB"/>
<path d="M168.95 123.719H157.015V124.326H168.95V123.719Z" fill="#EBEBEB"/>
<path d="M164.085 125.399H157.015V126.006H164.085V125.399Z" fill="#EBEBEB"/>
<path d="M170.265 127.076H157.015V127.683H170.265V127.076Z" fill="#EBEBEB"/>
<path d="M166.627 130.436H157.015V131.043H166.627V130.436Z" fill="#EBEBEB"/>
<path d="M170.265 132.112H157.015V132.719H170.265V132.112Z" fill="#EBEBEB"/>
<path d="M168.95 133.792H157.015V134.4H168.95V133.792Z" fill="#EBEBEB"/>
<path d="M150.646 103.573H147.128V104.18H150.646V103.573Z" fill="#A6A6A6"/>
<path d="M152.985 105.253H147.128V105.86H152.985V105.253Z" fill="#A6A6A6"/>
<path d="M152.023 106.929H147.128V107.536H152.023V106.929Z" fill="#A6A6A6"/>
<path d="M152.985 110.29H147.128V110.897H152.985V110.29Z" fill="#A6A6A6"/>
<path d="M153.351 111.966H147.128V112.573H153.351V111.966Z" fill="#A6A6A6"/>
<path d="M151.494 113.646H147.128V114.253H151.494V113.646Z" fill="#A6A6A6"/>
<path d="M152.285 115.326H147.128V115.933H152.285V115.326Z" fill="#A6A6A6"/>
<path d="M167.582 84.8137H149.811V92.028H167.582V84.8137Z" fill="#A6A6A6"/>
<path d="M165.019 87.6124H152.375V82.0146H165.019V87.6124Z" fill="#A6A6A6"/>
<path d="M40.3843 103.125H19.804V138.491H40.3843V103.125Z" fill="#03254E"/>
<path d="M42.8706 93.6292H17.3208V103.123H42.8706V93.6292Z" fill="#03254E"/>
<path d="M36.946 113.304H23.2452V128.999H36.946V113.304Z" fill="#44BFDB"/>
<path opacity="0.1" d="M19.804 103.125V105.878L31.3912 110.9V138.491H36.946V103.125H19.804Z" fill="#407BFF"/>
<path d="M13.4296 137.682C13.4312 136.896 13.7053 136.142 14.1917 135.587C14.6781 135.032 15.337 134.72 16.0237 134.721H21.1564C21.8426 134.721 22.5007 135.033 22.9864 135.588C23.4721 136.143 23.7458 136.896 23.7475 137.682C23.7458 138.469 23.4723 139.223 22.9868 139.779C22.5012 140.336 21.8431 140.649 21.1564 140.651H16.0268C15.339 140.651 14.6793 140.338 14.1924 139.782C13.7055 139.225 13.4312 138.47 13.4296 137.682Z" fill="#44BFDB"/>
<path d="M13.4296 137.682C13.4312 136.896 13.7053 136.142 14.1917 135.587C14.6781 135.032 15.337 134.72 16.0237 134.721H18.5931V140.661H16.0237C15.6826 140.661 15.345 140.583 15.03 140.433C14.7151 140.284 14.429 140.064 14.1881 139.787C13.9472 139.511 13.7562 139.182 13.6261 138.821C13.4959 138.46 13.4292 138.073 13.4296 137.682Z" fill="#03254E"/>
<path d="M48.6442 137.678C48.6426 138.465 48.3684 139.219 47.882 139.774C47.3956 140.329 46.7367 140.64 46.0501 140.64H40.9173C40.5775 140.64 40.2409 140.564 39.9267 140.415C39.6126 140.267 39.3271 140.049 39.0865 139.774C38.8459 139.499 38.6549 139.172 38.5245 138.813C38.394 138.453 38.3267 138.068 38.3263 137.678C38.3271 136.891 38.6004 136.137 39.0861 135.58C39.5718 135.024 40.2304 134.711 40.9173 134.71H46.0501C46.7373 134.711 47.3962 135.024 47.8824 135.58C48.3686 136.137 48.6426 136.891 48.6442 137.678Z" fill="#44BFDB"/>
<path d="M48.6442 137.678C48.6425 138.465 48.3684 139.219 47.882 139.774C47.3956 140.329 46.7367 140.64 46.0501 140.64H43.4806V134.71H46.0501C46.7373 134.711 47.3962 135.024 47.8824 135.58C48.3686 136.137 48.6425 136.891 48.6442 137.678Z" fill="#03254E"/>
<path d="M54.4669 138.889C54.2266 139.165 53.9413 139.383 53.6273 139.532C53.3133 139.681 52.9767 139.758 52.6369 139.758C52.297 139.758 51.9604 139.681 51.6464 139.532C51.3324 139.383 51.0471 139.165 50.8068 138.889L47.1775 134.732C46.9372 134.456 46.7465 134.129 46.6165 133.77C46.4864 133.41 46.4194 133.024 46.4194 132.635C46.4194 132.246 46.4864 131.86 46.6165 131.5C46.7465 131.141 46.9372 130.814 47.1775 130.539C47.6643 129.983 48.3235 129.671 49.0107 129.671C49.6978 129.671 50.357 129.983 50.8438 130.539L54.4731 134.696C54.9554 135.255 55.2254 136.009 55.2243 136.794C55.2231 137.58 54.9509 138.333 54.4669 138.889Z" fill="#44BFDB"/>
<path d="M54.4671 138.889C54.2268 139.165 53.9415 139.383 53.6275 139.532C53.3135 139.681 52.9769 139.758 52.637 139.758C52.2972 139.758 51.9606 139.681 51.6466 139.532C51.3326 139.383 51.0473 139.165 50.807 138.889L48.9893 136.807L52.6555 132.607L54.4732 134.689C54.9574 135.248 55.2287 136.004 55.2275 136.791C55.2264 137.578 54.9529 138.333 54.4671 138.889Z" fill="#03254E"/>
<path d="M30.9906 143.618C30.9922 142.832 31.2664 142.078 31.7528 141.523C32.2392 140.968 32.8981 140.656 33.5847 140.657H38.7175C39.0573 140.657 39.3939 140.733 39.7081 140.882C40.0222 141.03 40.3077 141.248 40.5483 141.523C40.7889 141.798 40.9799 142.125 41.1103 142.484C41.2408 142.844 41.3081 143.229 41.3085 143.618C41.3085 144.406 41.0356 145.161 40.5498 145.719C40.064 146.276 39.4049 146.589 38.7175 146.59H33.5847C32.897 146.589 32.2376 146.276 31.7513 145.719C31.265 145.162 30.9914 144.406 30.9906 143.618Z" fill="#44BFDB"/>
<path d="M30.9906 143.618C30.9922 142.832 31.2664 142.078 31.7528 141.523C32.2392 140.968 32.8981 140.656 33.5847 140.657H36.1542V146.597H33.5847C33.2436 146.597 32.906 146.519 32.591 146.37C32.2761 146.22 31.99 146 31.7491 145.723C31.5082 145.447 31.3173 145.119 31.1871 144.757C31.057 144.396 30.9902 144.009 30.9906 143.618Z" fill="#03254E"/>
</svg>
