<svg width="31" height="25" viewBox="0 0 31 25" fill="none" xmlns="http://www.w3.org/2000/svg">
<g clip-path="url(#clip0_165_1138)">
<rect width="31" height="25" fill="#FFFCFC"/>
<path d="M3.07275 16.272C2.34619 16.8579 1.9375 17.6528 1.9375 18.4819V20.7031L0 23.4375L1.9375 25L5.32812 23.4375H8.0824C9.10988 23.4375 10.0956 23.1084 10.8221 22.5225L18.4898 16.3398L10.7398 10.0898L3.07275 16.272ZM29.2974 1.37305C27.0287 -0.458008 23.3469 -0.458008 21.0782 1.37305L16.4106 5.13721L15.6175 4.49756C15.0459 4.03662 14.125 4.04297 13.5625 4.49756L11.0819 6.49805C10.5146 6.95557 10.5146 7.69775 11.0819 8.15527L20.8869 16.0625C21.4584 16.5234 22.3793 16.5171 22.9418 16.0625L25.4224 14.0625C25.9897 13.605 25.9897 12.8628 25.4224 12.4053L24.6293 11.7656L29.2968 8.00146C31.5679 6.17139 31.5679 3.20361 29.2974 1.37305Z" fill="#03254E"/>
</g>
<defs>
<clipPath id="clip0_165_1138">
<rect width="31" height="25" fill="white"/>
</clipPath>
</defs>
</svg>
