<svg width="37" height="30" viewBox="0 0 37 30" fill="none" xmlns="http://www.w3.org/2000/svg">
<path d="M34.2941 2.68362L26.6639 0.661968C25.2841 0.296373 23.8094 0.930903 23.3701 2.07923L15.0396 23.855C14.6003 25.0033 15.3628 26.2306 16.7426 26.5962L24.3728 28.6178C25.7526 28.9834 27.2273 28.3489 27.6666 27.2006L35.9971 5.42482C36.4364 4.27649 35.674 3.04922 34.2941 2.68362Z" fill="#03254E"/>
<path opacity="0.8" d="M36.117 4.83986C36.1123 5.04249 36.0718 5.24344 35.9968 5.43626L27.6674 27.2212C27.639 27.2951 27.6061 27.3679 27.5687 27.439C27.3088 27.932 26.8387 28.3274 26.2491 28.549C25.6596 28.7706 24.9923 28.8026 24.376 28.639L16.7418 26.6176C16.091 26.444 15.5473 26.0657 15.2267 25.5634C14.9061 25.0611 14.8338 24.4744 15.0253 23.9284L19.8315 11.3682L23.3547 2.07925C23.4578 1.80541 23.6247 1.55119 23.846 1.33113C24.0673 1.11107 24.3386 0.929491 24.6443 0.7968C24.9501 0.664108 25.2843 0.582904 25.6277 0.557839C25.9712 0.532775 26.3173 0.564341 26.6461 0.650729L34.2975 2.69708C34.4645 2.74148 34.6256 2.80012 34.7781 2.87208C35.1969 3.06607 35.5435 3.35234 35.7797 3.69946C36.0158 4.04659 36.1326 4.44116 36.117 4.83986Z" fill="white"/>
<g opacity="0.6">
<path opacity="0.5" d="M17.6558 17.0216L21.1188 7.97546L30.9244 1.78998L34.7866 2.86137C35.2061 3.05564 35.5531 3.34248 35.7893 3.69029C36.0255 4.03811 36.1418 4.43342 36.1255 4.83272L17.6558 17.0216Z" fill="white"/>
</g>
<path opacity="0.5" d="M22.4965 4.33988L23.3547 2.07925C23.4578 1.80541 23.6248 1.55119 23.8461 1.33113C24.0674 1.11107 24.3386 0.929491 24.6444 0.7968C24.9501 0.664108 25.2843 0.582904 25.6278 0.557839C25.9713 0.532775 26.3173 0.564341 26.6461 0.650729L27.7919 0.954286L22.4965 4.33988Z" fill="white"/>
<path d="M27.7619 4.25063C27.7016 4.40811 27.5866 4.54718 27.4313 4.65025C27.2761 4.75332 27.0876 4.81578 26.8897 4.82971C26.6918 4.84364 26.4934 4.80843 26.3196 4.72852C26.1457 4.64861 26.0043 4.52761 25.9131 4.3808C25.8219 4.23398 25.785 4.06796 25.8072 3.90371C25.8293 3.73947 25.9095 3.58439 26.0376 3.45808C26.1657 3.33176 26.3359 3.23989 26.5267 3.19407C26.7175 3.14825 26.9203 3.15055 27.1096 3.20067C27.2356 3.23355 27.3525 3.28687 27.4536 3.35756C27.5547 3.42825 27.638 3.5149 27.6987 3.61252C27.7593 3.71014 27.7961 3.81679 27.807 3.92631C27.8178 4.03584 27.8025 4.14607 27.7619 4.25063Z" fill="#44BFDB"/>
<path d="M25.848 9.24326C25.7877 9.39998 25.6729 9.5383 25.5182 9.64074C25.3634 9.74317 25.1757 9.80513 24.9786 9.81877C24.7816 9.83241 24.5841 9.79713 24.4111 9.71738C24.2382 9.63762 24.0975 9.51699 24.007 9.37071C23.9164 9.22444 23.8799 9.05911 23.9023 8.89561C23.9246 8.7321 24.0046 8.57778 24.1323 8.45214C24.26 8.32651 24.4296 8.2352 24.6197 8.18976C24.8097 8.14432 25.0117 8.1468 25.2 8.19687C25.3251 8.23014 25.4412 8.2836 25.5415 8.3542C25.6418 8.4248 25.7244 8.51116 25.7845 8.60833C25.8447 8.70551 25.8813 8.8116 25.8922 8.92054C25.9031 9.02949 25.8881 9.13915 25.848 9.24326Z" fill="#44BFDB"/>
<path d="M23.9383 14.2395C23.8787 14.3974 23.7642 14.537 23.6092 14.6406C23.4542 14.7442 23.2657 14.8072 23.0676 14.8216C22.8696 14.836 22.6708 14.8012 22.4966 14.7215C22.3223 14.6418 22.1804 14.5208 22.0889 14.374C21.9973 14.2271 21.9602 14.0609 21.9823 13.8964C22.0043 13.732 22.0845 13.5767 22.2127 13.4502C22.3409 13.3238 22.5114 13.2318 22.7025 13.1861C22.8935 13.1403 23.0966 13.1427 23.286 13.1931C23.4115 13.226 23.528 13.2792 23.6287 13.3497C23.7295 13.4201 23.8126 13.5064 23.8732 13.6036C23.9338 13.7008 23.9707 13.807 23.9819 13.9162C23.9931 14.0253 23.9782 14.1352 23.9383 14.2395Z" fill="#44BFDB"/>
<path d="M22.0287 19.2358C21.9684 19.3933 21.8534 19.5323 21.6982 19.6354C21.5429 19.7385 21.3544 19.8009 21.1566 19.8149C20.9587 19.8288 20.7603 19.7936 20.5864 19.7137C20.4126 19.6338 20.2711 19.5128 20.1799 19.366C20.0887 19.2192 20.0519 19.0531 20.074 18.8889C20.0962 18.7246 20.1764 18.5696 20.3045 18.4433C20.4325 18.3169 20.6027 18.2251 20.7935 18.1792C20.9843 18.1334 21.1872 18.1357 21.3764 18.1858C21.5024 18.2187 21.6194 18.272 21.7205 18.3427C21.8216 18.4134 21.9049 18.5001 21.9655 18.5977C22.0261 18.6953 22.063 18.802 22.0738 18.9115C22.0847 19.021 22.0693 19.1312 22.0287 19.2358Z" fill="#44BFDB"/>
<path d="M20.1191 24.2285C20.0595 24.3863 19.9449 24.5259 19.7899 24.6296C19.6349 24.7332 19.4465 24.7962 19.2484 24.8106C19.0503 24.825 18.8516 24.7901 18.6774 24.7104C18.5031 24.6307 18.3612 24.5098 18.2697 24.3629C18.1781 24.216 18.141 24.0498 18.1631 23.8854C18.1851 23.7209 18.2653 23.5657 18.3935 23.4392C18.5217 23.3127 18.6922 23.2208 18.8832 23.175C19.0743 23.1292 19.2774 23.1317 19.4668 23.1821C19.7189 23.2501 19.9288 23.3981 20.0508 23.5939C20.1729 23.7898 20.1974 24.0177 20.1191 24.2285Z" fill="#44BFDB"/>
<path d="M32.5853 5.52915C32.4927 5.7274 32.3127 5.88883 32.0821 5.98051C31.8515 6.07219 31.5875 6.08723 31.344 6.02256C31.1006 5.9579 30.8959 5.8184 30.7717 5.63249C30.6475 5.44659 30.6131 5.22827 30.6756 5.02202C30.7092 4.9114 30.7696 4.80766 30.8531 4.7172C30.9366 4.62674 31.0416 4.55147 31.1614 4.49603C31.2812 4.4406 31.4134 4.40617 31.5498 4.39486C31.6862 4.38355 31.824 4.39561 31.9546 4.4303C32.0852 4.46498 32.2059 4.52155 32.3092 4.59653C32.4125 4.6715 32.4963 4.76329 32.5554 4.86624C32.6145 4.96918 32.6476 5.08111 32.6528 5.19512C32.6579 5.30913 32.6349 5.4228 32.5853 5.52915Z" fill="#44BFDB"/>
<path d="M30.6758 10.5218C30.6158 10.6785 30.5013 10.8168 30.3469 10.9194C30.1924 11.022 30.0049 11.0842 29.808 11.0982C29.6111 11.1121 29.4137 11.0772 29.2406 10.9979C29.0675 10.9185 28.9266 10.7982 28.8356 10.6522C28.7446 10.5063 28.7076 10.3411 28.7293 10.1777C28.751 10.0142 28.8304 9.85976 28.9575 9.73384C29.0847 9.60792 29.2537 9.51617 29.4435 9.47017C29.6332 9.42417 29.835 9.42598 30.0235 9.47538C30.2763 9.54264 30.4869 9.69048 30.6091 9.88656C30.7313 10.0826 30.7553 10.311 30.6758 10.5218Z" fill="#44BFDB"/>
<path d="M28.7659 15.518C28.7063 15.6759 28.5918 15.8155 28.4368 15.9191C28.2818 16.0227 28.0933 16.0857 27.8953 16.1001C27.6972 16.1145 27.4984 16.0797 27.3242 16C27.15 15.9203 27.0081 15.7993 26.9165 15.6525C26.825 15.5056 26.7879 15.3394 26.8099 15.1749C26.832 15.0105 26.9122 14.8552 27.0404 14.7287C27.1686 14.6023 27.339 14.5103 27.5301 14.4646C27.7212 14.4188 27.9242 14.4212 28.1136 14.4716C28.3658 14.5397 28.5756 14.6876 28.6977 14.8835C28.8198 15.0793 28.8443 15.3073 28.7659 15.518Z" fill="#44BFDB"/>
<path d="M26.8521 20.5143C26.7595 20.7126 26.5796 20.874 26.349 20.9657C26.1183 21.0574 25.8544 21.0724 25.6109 21.0077C25.3674 20.9431 25.1627 20.8036 25.0385 20.6177C24.9143 20.4318 24.88 20.2134 24.9425 20.0072C24.976 19.8966 25.0364 19.7928 25.12 19.7024C25.2035 19.6119 25.3084 19.5366 25.4282 19.4812C25.548 19.4258 25.6802 19.3913 25.8166 19.38C25.9531 19.3687 26.0908 19.3808 26.2214 19.4155C26.352 19.4501 26.4727 19.5067 26.576 19.5817C26.6794 19.6567 26.7632 19.7485 26.8223 19.8514C26.8813 19.9544 26.9145 20.0663 26.9196 20.1803C26.9247 20.2943 26.9018 20.408 26.8521 20.5143Z" fill="#44BFDB"/>
<path d="M24.9425 25.5069C24.8825 25.6636 24.768 25.802 24.6136 25.9046C24.4591 26.0072 24.2716 26.0694 24.0747 26.0833C23.8778 26.0973 23.6804 26.0624 23.5073 25.983C23.3342 25.9037 23.1933 25.7834 23.1023 25.6374C23.0113 25.4914 22.9743 25.3263 22.996 25.1628C23.0177 24.9994 23.0972 24.8449 23.2243 24.719C23.3514 24.5931 23.5205 24.5013 23.7102 24.4553C23.8999 24.4093 24.1017 24.4112 24.2902 24.4606C24.5431 24.5278 24.7536 24.6756 24.8758 24.8717C24.9981 25.0678 25.022 25.2962 24.9425 25.5069Z" fill="#44BFDB"/>
<g opacity="0.4">
<path d="M27.7619 4.25063C27.7016 4.40811 27.5866 4.54718 27.4313 4.65025C27.2761 4.75332 27.0876 4.81578 26.8897 4.82971C26.6918 4.84364 26.4934 4.80843 26.3196 4.72852C26.1457 4.64861 26.0043 4.52761 25.9131 4.3808C25.8219 4.23398 25.785 4.06796 25.8072 3.90371C25.8293 3.73947 25.9095 3.58439 26.0376 3.45808C26.1657 3.33176 26.3359 3.23989 26.5267 3.19407C26.7175 3.14825 26.9203 3.15055 27.1096 3.20067C27.2356 3.23355 27.3525 3.28687 27.4536 3.35756C27.5547 3.42825 27.638 3.5149 27.6987 3.61252C27.7593 3.71014 27.7961 3.81679 27.807 3.92631C27.8178 4.03584 27.8025 4.14607 27.7619 4.25063Z" fill="white"/>
<path d="M25.848 9.24326C25.7877 9.39998 25.6729 9.5383 25.5182 9.64074C25.3634 9.74317 25.1757 9.80513 24.9786 9.81877C24.7816 9.83241 24.5841 9.79713 24.4111 9.71738C24.2382 9.63762 24.0975 9.51699 24.007 9.37071C23.9164 9.22444 23.8799 9.05911 23.9023 8.89561C23.9246 8.7321 24.0046 8.57778 24.1323 8.45214C24.26 8.32651 24.4296 8.2352 24.6197 8.18976C24.8097 8.14432 25.0117 8.1468 25.2 8.19687C25.3251 8.23014 25.4412 8.2836 25.5415 8.3542C25.6418 8.4248 25.7244 8.51116 25.7845 8.60833C25.8447 8.70551 25.8813 8.8116 25.8922 8.92054C25.9031 9.02949 25.8881 9.13915 25.848 9.24326Z" fill="white"/>
<path d="M23.9383 14.2395C23.8787 14.3974 23.7642 14.537 23.6092 14.6406C23.4542 14.7442 23.2657 14.8072 23.0676 14.8216C22.8696 14.836 22.6708 14.8012 22.4966 14.7215C22.3223 14.6418 22.1804 14.5208 22.0889 14.374C21.9973 14.2271 21.9602 14.0609 21.9823 13.8964C22.0043 13.732 22.0845 13.5767 22.2127 13.4502C22.3409 13.3238 22.5114 13.2318 22.7025 13.1861C22.8935 13.1403 23.0966 13.1427 23.286 13.1931C23.4115 13.226 23.528 13.2792 23.6287 13.3497C23.7295 13.4201 23.8126 13.5064 23.8732 13.6036C23.9338 13.7008 23.9707 13.807 23.9819 13.9162C23.9931 14.0253 23.9782 14.1352 23.9383 14.2395Z" fill="white"/>
<path d="M22.0287 19.2357C21.9684 19.3932 21.8534 19.5323 21.6982 19.6354C21.5429 19.7384 21.3544 19.8009 21.1566 19.8148C20.9587 19.8287 20.7603 19.7935 20.5864 19.7136C20.4126 19.6337 20.2711 19.5127 20.1799 19.3659C20.0887 19.2191 20.0519 19.0531 20.074 18.8888C20.0962 18.7246 20.1764 18.5695 20.3045 18.4432C20.4325 18.3169 20.6027 18.225 20.7935 18.1792C20.9843 18.1334 21.1872 18.1357 21.3764 18.1858C21.5024 18.2187 21.6194 18.272 21.7205 18.3427C21.8216 18.4134 21.9049 18.5 21.9655 18.5976C22.0261 18.6952 22.063 18.8019 22.0738 18.9114C22.0847 19.0209 22.0693 19.1312 22.0287 19.2357Z" fill="white"/>
<path d="M20.1191 24.2284C20.0595 24.3863 19.9449 24.5259 19.7899 24.6295C19.6349 24.7332 19.4465 24.7962 19.2484 24.8106C19.0503 24.825 18.8516 24.7901 18.6774 24.7104C18.5031 24.6307 18.3612 24.5097 18.2697 24.3629C18.1781 24.216 18.141 24.0498 18.1631 23.8854C18.1851 23.7209 18.2653 23.5656 18.3935 23.4392C18.5217 23.3127 18.6922 23.2207 18.8832 23.175C19.0743 23.1292 19.2774 23.1317 19.4668 23.182C19.7189 23.2501 19.9288 23.3981 20.0508 23.5939C20.1729 23.7897 20.1974 24.0177 20.1191 24.2284Z" fill="white"/>
</g>
<g opacity="0.4">
<path d="M32.5853 5.52915C32.4927 5.7274 32.3127 5.88883 32.0821 5.98051C31.8515 6.07219 31.5875 6.08723 31.344 6.02256C31.1006 5.9579 30.8959 5.8184 30.7717 5.63249C30.6475 5.44659 30.6131 5.22827 30.6756 5.02202C30.7092 4.9114 30.7696 4.80766 30.8531 4.7172C30.9366 4.62674 31.0416 4.55147 31.1614 4.49603C31.2812 4.4406 31.4134 4.40617 31.5498 4.39486C31.6862 4.38355 31.824 4.39561 31.9546 4.4303C32.0852 4.46498 32.2059 4.52155 32.3092 4.59653C32.4125 4.6715 32.4963 4.76329 32.5554 4.86624C32.6145 4.96918 32.6476 5.08111 32.6528 5.19512C32.6579 5.30913 32.6349 5.4228 32.5853 5.52915Z" fill="white"/>
<path d="M30.6758 10.5218C30.6158 10.6785 30.5013 10.8168 30.3469 10.9194C30.1924 11.022 30.0049 11.0842 29.808 11.0982C29.6111 11.1121 29.4137 11.0772 29.2406 10.9979C29.0675 10.9185 28.9266 10.7982 28.8356 10.6522C28.7446 10.5063 28.7076 10.3411 28.7293 10.1777C28.751 10.0142 28.8304 9.85976 28.9575 9.73384C29.0847 9.60792 29.2537 9.51617 29.4435 9.47017C29.6332 9.42417 29.835 9.42598 30.0235 9.47538C30.2763 9.54264 30.4869 9.69048 30.6091 9.88656C30.7313 10.0826 30.7553 10.311 30.6758 10.5218Z" fill="white"/>
<path d="M28.7659 15.518C28.7063 15.6759 28.5918 15.8155 28.4368 15.9191C28.2818 16.0227 28.0933 16.0857 27.8953 16.1001C27.6972 16.1145 27.4984 16.0797 27.3242 16C27.15 15.9203 27.0081 15.7993 26.9165 15.6525C26.825 15.5056 26.7879 15.3394 26.8099 15.1749C26.832 15.0105 26.9122 14.8552 27.0404 14.7287C27.1686 14.6023 27.339 14.5103 27.5301 14.4646C27.7212 14.4188 27.9242 14.4212 28.1136 14.4716C28.3658 14.5397 28.5756 14.6876 28.6977 14.8835C28.8198 15.0793 28.8443 15.3073 28.7659 15.518Z" fill="white"/>
<path d="M26.8521 20.5143C26.7595 20.7126 26.5796 20.874 26.349 20.9657C26.1183 21.0574 25.8544 21.0724 25.6109 21.0077C25.3674 20.9431 25.1627 20.8036 25.0385 20.6177C24.9143 20.4318 24.88 20.2134 24.9425 20.0072C24.976 19.8966 25.0364 19.7928 25.12 19.7024C25.2035 19.6119 25.3084 19.5366 25.4282 19.4812C25.548 19.4258 25.6802 19.3913 25.8166 19.38C25.9531 19.3687 26.0908 19.3808 26.2214 19.4155C26.352 19.4501 26.4727 19.5067 26.576 19.5817C26.6794 19.6567 26.7632 19.7485 26.8223 19.8514C26.8813 19.9544 26.9145 20.0663 26.9196 20.1803C26.9247 20.2943 26.9018 20.408 26.8521 20.5143Z" fill="white"/>
<path d="M24.9425 25.507C24.8825 25.6637 24.768 25.802 24.6136 25.9046C24.4591 26.0072 24.2716 26.0694 24.0747 26.0834C23.8778 26.0973 23.6804 26.0624 23.5073 25.9831C23.3342 25.9037 23.1933 25.7834 23.1023 25.6374C23.0113 25.4915 22.9743 25.3263 22.996 25.1629C23.0177 24.9994 23.0972 24.845 23.2243 24.719C23.3514 24.5931 23.5205 24.5014 23.7102 24.4554C23.8999 24.4094 24.1017 24.4112 24.2902 24.4606C24.5431 24.5278 24.7536 24.6757 24.8758 24.8718C24.9981 25.0678 25.022 25.2962 24.9425 25.507Z" fill="white"/>
</g>
<path opacity="0.7" d="M19.853 27.6962L6.67015 29.9604C6.06362 30.0638 5.43255 29.9629 4.91531 29.6797C4.39806 29.3965 4.03684 28.9542 3.91085 28.4497L0.117348 13.1431C-0.129651 12.1568 0.015587 11.1304 0.531149 10.2188C1.04671 9.30718 1.90461 8.55991 2.97534 8.08974C3.44097 7.88418 3.93952 7.73505 4.45585 7.6469L11.2661 6.47908C11.9847 6.35484 12.7257 6.34982 13.4466 6.46432C14.1676 6.57881 14.8542 6.81057 15.4674 7.14631C16.0805 7.48205 16.6079 7.91517 17.0196 8.42086C17.4312 8.92655 17.7189 9.49486 17.8661 10.0932L21.6639 25.3998C21.7267 25.6496 21.7296 25.9072 21.6725 26.1579C21.6154 26.4086 21.4994 26.6475 21.3312 26.8608C21.163 27.0741 20.9458 27.2577 20.6921 27.4011C20.4385 27.5444 20.1533 27.6447 19.853 27.6962Z" fill="white"/>
<path d="M18.0384 10.7952L0.286011 13.8439L3.10295 25.2041L20.8553 22.1554L18.0384 10.7952Z" fill="#44BFDB"/>
<path opacity="0.4" d="M18.0384 10.7952L0.286011 13.8439L3.10295 25.2041L20.8553 22.1554L18.0384 10.7952Z" fill="white"/>
<path d="M2.35855 4.34575L12.0249 2.68567C12.181 2.65885 12.3421 2.65788 12.4987 2.68285C12.6553 2.70781 12.8045 2.7582 12.9378 2.83115C13.071 2.90409 13.1857 2.99816 13.2752 3.10799C13.3648 3.21781 13.4274 3.34124 13.4597 3.47123L13.8369 4.99268L1.77508 7.06417L1.39434 5.52872C1.3643 5.39836 1.36541 5.26434 1.39761 5.13433C1.42981 5.00433 1.49247 4.88087 1.58201 4.77102C1.67154 4.66117 1.78621 4.56707 1.91945 4.4941C2.05269 4.42113 2.2019 4.37072 2.35855 4.34575Z" fill="#44BFDB"/>
<path opacity="0.7" d="M13.3432 6.44696C12.6545 6.3507 11.9502 6.3616 11.2662 6.4791L4.47311 7.64692C3.95678 7.73508 3.45824 7.8842 2.99262 8.08976L2.70081 6.90766L13.0342 5.12201L13.3432 6.44696Z" fill="white"/>
<path opacity="0.3" d="M2.79928 8.93259C2.7936 8.87441 2.76583 8.81924 2.71998 8.77508C2.67412 8.73091 2.61258 8.70004 2.54424 8.68691C2.4759 8.67379 2.40431 8.6791 2.33984 8.70208C2.27537 8.72506 2.22136 8.76451 2.18563 8.81473C1.7062 9.45464 1.48656 10.2058 1.5591 10.9575C1.79083 12.2432 5.08654 26.2605 5.59291 28.4069C5.63667 28.5835 5.75177 28.7423 5.91905 28.8568C6.03045 28.9307 6.16072 28.9823 6.29984 29.0077C6.43895 29.0331 6.58322 29.0316 6.72153 29.0033L7.22361 28.8997L2.93231 10.5754C2.93231 10.5754 2.85507 9.69684 2.79928 8.93259Z" fill="white"/>
</svg>
