<svg width="31" height="25" viewBox="0 0 31 25" fill="none" xmlns="http://www.w3.org/2000/svg">
<g clip-path="url(#clip0_224_636)">
<path d="M13.5625 1.5625C13.5625 0.699707 12.6949 0 11.625 0H7.75C6.68014 0 5.8125 0.699707 5.8125 1.5625V6.25H13.5625V1.5625ZM29.0625 6.25C27.9926 6.25 27.125 6.94971 27.125 7.8125C27.125 8.67529 27.9926 9.375 29.0625 9.375C30.1324 9.375 31 8.67529 31 7.8125C31 6.94971 30.1324 6.25 29.0625 6.25ZM13.5625 7.8125H5.8125C2.6023 7.8125 0 9.91113 0 12.5V23.4375C0 24.3003 0.867637 25 1.9375 25H17.4375C18.5074 25 19.375 24.3003 19.375 23.4375V12.5C19.375 9.91113 16.7727 7.8125 13.5625 7.8125ZM9.6875 20.3125C7.01254 20.3125 4.84375 18.5635 4.84375 16.4062C4.84375 14.249 7.01254 12.5 9.6875 12.5C12.3625 12.5 14.5312 14.249 14.5312 16.4062C14.5312 18.5635 12.3625 20.3125 9.6875 20.3125ZM29.0625 4.6875C30.1324 4.6875 31 3.98779 31 3.125C31 2.26221 30.1324 1.5625 29.0625 1.5625C27.9926 1.5625 27.125 2.26221 27.125 3.125C27.125 3.98779 27.9926 4.6875 29.0625 4.6875ZM23.25 6.25C22.1801 6.25 21.3125 6.94971 21.3125 7.8125C21.3125 8.67529 22.1801 9.375 23.25 9.375C24.3199 9.375 25.1875 8.67529 25.1875 7.8125C25.1875 6.94971 24.3199 6.25 23.25 6.25ZM17.4375 1.5625C16.3676 1.5625 15.5 2.26221 15.5 3.125C15.5 3.98779 16.3676 4.6875 17.4375 4.6875C18.5074 4.6875 19.375 3.98779 19.375 3.125C19.375 2.26221 18.5074 1.5625 17.4375 1.5625ZM23.25 1.5625C22.1801 1.5625 21.3125 2.26221 21.3125 3.125C21.3125 3.98779 22.1801 4.6875 23.25 4.6875C24.3199 4.6875 25.1875 3.98779 25.1875 3.125C25.1875 2.26221 24.3199 1.5625 23.25 1.5625ZM29.0625 10.9375C27.9926 10.9375 27.125 11.6372 27.125 12.5C27.125 13.3628 27.9926 14.0625 29.0625 14.0625C30.1324 14.0625 31 13.3628 31 12.5C31 11.6372 30.1324 10.9375 29.0625 10.9375Z" fill="#03254E"/>
</g>
<defs>
<clipPath id="clip0_224_636">
<rect width="31" height="25" fill="white"/>
</clipPath>
</defs>
</svg>
