<svg width="29" height="42" viewBox="0 0 29 42" fill="none" xmlns="http://www.w3.org/2000/svg">
<path d="M12.1054 9.67677C9.42465 9.55109 5.54292 10.3071 3.43597 11.3663C2.38505 11.895 1.97504 12.3995 2.16388 12.7875L9.94398 28.7307L9.96005 28.7284C10.2162 29.0704 10.9778 29.3105 12.2186 29.3664C14.9021 29.4917 18.7835 28.7345 20.888 27.6768C21.8618 27.1872 22.2797 26.7192 22.1878 26.3452L22.2038 26.3429L14.4235 10.3985C14.2346 10.0104 13.4469 9.73883 12.1054 9.67677Z" fill="#44BFDB"/>
<path opacity="0.7" d="M12.1054 9.67677C9.42465 9.55109 5.54292 10.3071 3.43597 11.3663C2.38505 11.895 1.97504 12.3995 2.16388 12.7875L9.94398 28.7307L9.96005 28.7284C10.2162 29.0704 10.9778 29.3105 12.2186 29.3664C14.9021 29.4917 18.7835 28.7345 20.888 27.6768C21.8618 27.1872 22.2797 26.7192 22.1878 26.3452L22.2038 26.3429L14.4235 10.3985C14.2346 10.0104 13.4469 9.73883 12.1054 9.67677Z" fill="white"/>
<path d="M4.48161 13.5092C1.7982 13.3839 1.33056 12.4217 3.43559 11.3663C5.54062 10.311 9.42426 9.55111 12.105 9.6768C14.7857 9.80248 15.258 10.7604 13.1393 11.8165C11.0206 12.8726 7.16501 13.6345 4.48161 13.5092Z" fill="#44BFDB"/>
<path opacity="0.8" d="M4.48161 13.5092C1.7982 13.3839 1.33056 12.4217 3.43559 11.3663C5.54062 10.311 9.42426 9.55111 12.105 9.6768C14.7857 9.80248 15.258 10.7604 13.1393 11.8165C11.0206 12.8726 7.16501 13.6345 4.48161 13.5092Z" fill="white"/>
<path d="M17.5742 40.3444C14.8935 40.2187 14.4237 39.2592 16.5309 38.2011C18.6381 37.143 22.5169 36.3863 25.2 36.5104C27.8832 36.6345 28.3506 37.5956 26.2434 38.6536C24.1362 39.7117 20.2574 40.4685 17.5742 40.3444Z" fill="#44BFDB"/>
<path opacity="0.7" d="M17.5742 40.3444C14.8935 40.2187 14.4237 39.2592 16.5309 38.2011C18.6381 37.143 22.5169 36.3863 25.2 36.5104C27.8832 36.6345 28.3506 37.5956 26.2434 38.6536C24.1362 39.7117 20.2574 40.4685 17.5742 40.3444Z" fill="white"/>
<path d="M20.5451 36.9331C19.0672 37.2139 17.6867 37.65 16.5311 38.201C14.4239 39.2591 14.8937 40.2186 17.5744 40.3443C19.0216 40.3869 20.5509 40.2555 22.023 39.9621L20.5451 36.9331Z" fill="#44BFDB"/>
<path d="M21.9784 39.6314C25.364 38.9714 27.7774 37.7581 27.3691 36.9212C26.9607 36.0844 23.8851 35.9409 20.4996 36.6009C17.114 37.2608 14.7006 38.4742 15.1089 39.311C15.5173 40.1479 18.5929 40.2913 21.9784 39.6314Z" fill="#44BFDB"/>
<path opacity="0.8" d="M21.9784 39.6314C25.364 38.9714 27.7774 37.7581 27.3691 36.9212C26.9607 36.0844 23.8851 35.9409 20.4996 36.6009C17.114 37.2608 14.7006 38.4742 15.1089 39.311C15.5173 40.1479 18.5929 40.2913 21.9784 39.6314Z" fill="white"/>
<path d="M18.1165 27.1708C18.0849 27.0248 17.8246 26.919 17.3422 26.8973C16.847 26.8872 16.3271 26.9328 15.8248 27.0305C15.3225 27.1283 14.852 27.2754 14.4513 27.4599C14.3016 27.5236 14.1833 27.6012 14.1087 27.6847C14.034 27.7682 14.0057 27.8545 14.0267 27.9349L19.1892 38.5158C19.2436 38.5894 19.3438 38.6506 19.4796 38.6929C19.6154 38.7352 19.7819 38.7573 19.962 38.7567C20.4574 38.7667 20.9774 38.7208 21.4796 38.6229C21.9819 38.5249 22.4523 38.3777 22.8526 38.193C23.2312 38.0026 23.3526 37.8237 23.2493 37.6905L18.1165 27.1708Z" fill="#44BFDB"/>
<path opacity="0.7" d="M18.1165 27.1708C18.0849 27.0248 17.8246 26.919 17.3422 26.8973C16.847 26.8872 16.3271 26.9328 15.8248 27.0305C15.3225 27.1283 14.852 27.2754 14.4513 27.4599C14.3016 27.5236 14.1833 27.6012 14.1087 27.6847C14.034 27.7682 14.0057 27.8545 14.0267 27.9349L19.1892 38.5158C19.2436 38.5894 19.3438 38.6506 19.4796 38.6929C19.6154 38.7352 19.7819 38.7573 19.962 38.7567C20.4574 38.7667 20.9774 38.7208 21.4796 38.6229C21.9819 38.5249 22.4523 38.3777 22.8526 38.193C23.2312 38.0026 23.3526 37.8237 23.2493 37.6905L18.1165 27.1708Z" fill="white"/>
<g opacity="0.3">
<path d="M17.5527 26.9144C17.4853 26.9064 17.4158 26.9005 17.3446 26.897C17.2665 26.8941 17.1871 26.8933 17.1067 26.8947L22.6611 38.2788C22.7266 38.25 22.7954 38.2231 22.8551 38.1927C22.9107 38.1643 22.9633 38.1349 23.0127 38.1044L17.5527 26.9144Z" fill="white"/>
<path d="M16.7018 26.9117C16.4915 26.929 16.2808 26.9548 16.0723 26.9889L21.7217 38.5693C21.819 38.5468 21.916 38.5232 22.0099 38.4975L22.0474 38.4921C22.1385 38.4669 22.2268 38.4408 22.3065 38.4136L16.7018 26.9117Z" fill="white"/>
</g>
<path d="M20.3195 38.4309C19.9928 38.2994 19.7572 37.6182 19.4103 36.9081C19.2317 36.5417 15.2451 28.3727 14.739 27.3346C14.6392 27.3738 14.544 27.4154 14.4539 27.4594C14.3042 27.5231 14.1859 27.6007 14.1112 27.6842C14.0366 27.7677 14.0083 27.8541 14.0293 27.9344L19.1891 38.5157C19.2435 38.5894 19.3437 38.6505 19.4795 38.6928C19.6153 38.7352 19.7818 38.7572 19.9619 38.7566C20.4574 38.7666 20.9773 38.7208 21.4795 38.6228C21.9818 38.5249 22.4522 38.3776 22.8525 38.1929L22.9292 38.1516C23.0862 38.0477 23.1682 37.98 23.1682 37.98C22.654 38.2834 20.8061 38.6256 20.3195 38.4309Z" fill="#44BFDB"/>
<path d="M17.3449 26.8969C16.8496 26.8868 16.3298 26.9324 15.8275 27.0301C15.3252 27.1279 14.8546 27.275 14.454 27.4595C14.3043 27.5232 14.186 27.6008 14.1114 27.6843C14.0367 27.7678 14.0084 27.8541 14.0294 27.9345L14.6836 29.2742C16.0847 29.1274 17.4697 28.8577 18.7587 28.4807L18.1165 27.1708C18.0849 27.0248 17.8285 26.9245 17.3449 26.8969Z" fill="#44BFDB"/>
<g opacity="0.3">
<path d="M17.5527 26.9144C17.4853 26.9064 17.4158 26.9005 17.3446 26.897C17.2665 26.8941 17.1871 26.8933 17.1067 26.8947L17.9811 28.6908C18.1122 28.6586 18.243 28.6252 18.3707 28.5899L17.5527 26.9144Z" fill="white"/>
<path d="M17.0103 28.913C17.214 28.8716 17.4142 28.827 17.6139 28.7801L16.7018 26.9117C16.4915 26.929 16.2808 26.9548 16.0723 26.9889L17.0103 28.913Z" fill="white"/>
</g>
<path opacity="0.05" d="M14.739 27.3346C14.6392 27.3738 14.544 27.4154 14.4539 27.4594C14.3042 27.5231 14.1859 27.6007 14.1112 27.6842C14.0366 27.7677 14.0083 27.8541 14.0293 27.9344L14.6835 29.2741C14.9986 29.2418 15.3136 29.2022 15.627 29.1555C15.3775 28.6402 15.0466 27.9654 14.739 27.3346Z" fill="#03254E"/>
<path d="M17.0731 25.0276C17.0413 24.8804 16.7812 24.7757 16.2988 24.754C15.8036 24.7439 15.2837 24.7895 14.7814 24.8873C14.2791 24.985 13.8086 25.1321 13.408 25.3166C13.2586 25.3802 13.1405 25.4575 13.0659 25.5408C12.9912 25.6241 12.9626 25.7102 12.983 25.7904L14.0293 27.9345C14.0838 28.008 14.1841 28.0689 14.3198 28.111C14.4556 28.1532 14.6219 28.175 14.8018 28.1743C15.2973 28.1842 15.8172 28.1384 16.3194 28.0404C16.8217 27.9425 17.2921 27.7952 17.6925 27.6106C18.071 27.4202 18.1924 27.2412 18.0893 27.1092L17.0731 25.0276Z" fill="#44BFDB"/>
<path opacity="0.5" d="M17.0731 25.0276C17.0413 24.8804 16.7812 24.7757 16.2988 24.754C15.8036 24.7439 15.2837 24.7895 14.7814 24.8873C14.2791 24.985 13.8086 25.1321 13.408 25.3166C13.2586 25.3802 13.1405 25.4575 13.0659 25.5408C12.9912 25.6241 12.9626 25.7102 12.983 25.7904L14.0293 27.9345C14.0838 28.008 14.1841 28.0689 14.3198 28.111C14.4556 28.1532 14.6219 28.175 14.8018 28.1743C15.2973 28.1842 15.8172 28.1384 16.3194 28.0404C16.8217 27.9425 17.2921 27.7952 17.6925 27.6106C18.071 27.4202 18.1924 27.2412 18.0893 27.1092L17.0731 25.0276Z" fill="white"/>
<path opacity="0.05" d="M17.0731 25.0276C17.0413 24.8804 16.7812 24.7757 16.2988 24.754C15.8036 24.7439 15.2837 24.7895 14.7814 24.8873C14.2791 24.985 13.8086 25.1321 13.408 25.3166C13.2586 25.3802 13.1405 25.4575 13.0659 25.5408C12.9912 25.6241 12.9626 25.7102 12.983 25.7904L14.0293 27.9345C14.0838 28.008 14.1841 28.0689 14.3198 28.111C14.4556 28.1532 14.6219 28.175 14.8018 28.1743C15.2973 28.1842 15.8172 28.1384 16.3194 28.0404C16.8217 27.9425 17.2921 27.7952 17.6925 27.6106C18.071 27.4202 18.1924 27.2412 18.0893 27.1092L17.0731 25.0276Z" fill="#03254E"/>
<g opacity="0.3">
<path d="M17.4993 27.7004C17.5669 27.6731 17.6317 27.6443 17.6933 27.6142C17.7496 27.5861 17.8023 27.5566 17.851 27.526L16.8586 25.4907L16.4586 25.5689L17.4993 27.7004Z" fill="white"/>
<path d="M17.1539 27.8265L16.1518 25.7465L15.5398 25.866L16.5754 27.9861C16.7743 27.9398 16.9679 27.8864 17.1539 27.8265Z" fill="white"/>
</g>
<path opacity="0.1" d="M14.8018 28.1743C14.9153 28.1799 15.0318 28.1806 15.1502 28.1765C14.7139 27.2825 14.1471 26.0917 13.9263 25.6707C13.8259 25.7098 13.7307 25.7519 13.6415 25.7966C13.4921 25.8602 13.3741 25.9376 13.2994 26.0208C13.2248 26.1041 13.1962 26.1902 13.2166 26.2704L14.0293 27.9346C14.0838 28.008 14.1841 28.069 14.3198 28.1111C14.4556 28.1532 14.6219 28.1751 14.8018 28.1743Z" fill="#03254E"/>
<path d="M10.9784 25.2033C9.23592 26.0839 9.6136 26.8855 11.848 26.9904C14.0825 27.0953 17.3174 26.4638 19.0745 25.5872C20.8316 24.7106 20.4463 23.8992 18.2145 23.7939C15.9828 23.6887 12.7344 24.322 10.9784 25.2033Z" fill="#263238"/>
<path d="M10.8838 25.0093C9.14139 25.8899 9.51881 26.6903 11.7532 26.7952C13.9877 26.9 17.2228 26.2698 18.9797 25.392C20.7365 24.5142 20.3471 23.7094 18.11 23.6049C15.8729 23.5004 12.6404 24.1303 10.8838 25.0093Z" fill="#37474F"/>
<path d="M13.4031 10.5974C13.2561 10.3004 12.6144 10.1038 11.5049 10.0678C9.28227 10.005 6.05513 10.6341 4.28108 11.4706C3.39176 11.8911 3.03802 12.2855 3.18239 12.5828L9.74254 26.0257C9.9008 26.349 10.5572 26.5751 11.6729 26.6271C13.9047 26.7324 17.1423 26.1006 18.8994 25.224C19.7758 24.7823 20.1184 24.3616 19.9601 24.0383L13.4031 10.5974Z" fill="#44BFDB"/>
<path d="M4.48147 13.5092C7.16488 13.6345 11.0464 12.8773 13.1391 11.8165C13.3805 11.6954 13.6013 11.5665 13.7987 11.4315L13.3912 10.5941C13.2441 10.2972 12.6024 10.1005 11.4929 10.0646C9.27031 10.0017 6.04316 10.6308 4.26912 11.4674C3.3798 11.8878 3.02606 12.2823 3.17043 12.5796L3.58061 13.4166C3.86676 13.462 4.1685 13.493 4.48147 13.5092Z" fill="#44BFDB"/>
<path opacity="0.2" d="M4.48147 13.5092C7.16488 13.6345 11.0464 12.8773 13.1391 11.8165C13.3805 11.6954 13.6013 11.5665 13.7987 11.4315L13.3912 10.5941C13.2441 10.2972 12.6024 10.1005 11.4929 10.0646C9.27031 10.0017 6.04316 10.6308 4.26912 11.4674C3.3798 11.8878 3.02606 12.2823 3.17043 12.5796L3.58061 13.4166C3.86676 13.462 4.1685 13.493 4.48147 13.5092Z" fill="white"/>
<path d="M10.8101 24.8597C9.93344 25.3002 9.59359 25.7205 9.74917 26.0441C9.90476 26.3678 10.5638 26.5935 11.6796 26.6455C13.9113 26.7508 17.1489 26.119 18.906 25.2424C19.7825 24.8007 20.125 24.38 19.9667 24.0567C19.8085 23.7335 19.155 23.5081 18.0363 23.4553C16.9177 23.4025 15.2952 23.0118 13.9889 23.2663C12.6827 23.5209 11.6893 24.4176 10.8101 24.8597Z" fill="#455A64"/>
<path opacity="0.2" d="M11.275 25.9243C11.2426 25.4555 12.4226 24.9872 12.9022 24.2809C13.3673 23.5973 13.8732 23.3061 14.5461 23.1875C14.3592 23.2002 14.1713 23.224 13.9871 23.2581C12.6781 23.5131 11.6884 24.4141 10.8093 24.8562C9.93018 25.2982 9.59275 25.717 9.74833 26.0406C9.90392 26.3643 10.563 26.59 11.6787 26.642C13.9105 26.7473 17.1469 26.1229 18.9189 25.2259C14.2826 26.9232 11.3105 26.4206 11.275 25.9243Z" fill="#03254E"/>
<path d="M10.8101 24.8597C9.93344 25.3002 9.59359 25.7205 9.74917 26.0441C9.90476 26.3678 10.5638 26.5935 11.6796 26.6455C13.9113 26.7508 17.1489 26.119 18.906 25.2424C19.7825 24.8007 20.125 24.38 19.9667 24.0567C19.8085 23.7335 19.155 23.5081 18.0363 23.4553C16.9177 23.4025 15.2952 23.0118 13.9889 23.2663C12.6827 23.5209 11.6893 24.4176 10.8101 24.8597Z" fill="#44BFDB"/>
<path opacity="0.3" d="M18.2492 25.5117C18.4778 25.4222 18.6951 25.3265 18.8997 25.2252C19.128 25.1117 19.334 24.9897 19.514 24.8612L12.5822 10.6827L11.1382 10.9643L18.2492 25.5117Z" fill="white"/>
<path opacity="0.3" d="M16.895 25.9662C17.1499 25.8939 17.3959 25.8181 17.6327 25.7387L10.6057 11.3371L9.83213 11.4883L16.895 25.9662Z" fill="white"/>
<path opacity="0.1" d="M18.2098 25.5344C14.7972 26.5956 12.1211 26.0188 11.7827 25.3221C11.4443 24.6254 6.51551 14.5256 5.57551 12.5921L3.4448 11.9964C3.20383 12.1904 3.11122 12.4035 3.18483 12.5946L9.74498 26.0375C9.90324 26.3608 10.5596 26.5869 11.6754 26.639C13.6405 26.7243 16.3884 26.2539 18.2098 25.5344Z" fill="#03254E"/>
<path d="M4.28211 11.4765C2.50641 12.3182 2.86421 13.0534 5.07876 13.1174C7.29331 13.1815 10.5285 12.5512 12.3052 11.7142C14.0819 10.8773 13.7231 10.1373 11.5056 10.0725C9.28815 10.0077 6.05489 10.634 4.28211 11.4765Z" fill="#44BFDB"/>
<path opacity="0.3" d="M4.28211 11.4765C2.50641 12.3182 2.86421 13.0534 5.07876 13.1174C7.29331 13.1815 10.5285 12.5512 12.3052 11.7142C14.0819 10.8773 13.7231 10.1373 11.5056 10.0725C9.28815 10.0077 6.05489 10.634 4.28211 11.4765Z" fill="white"/>
<path d="M10.6616 9.56619C10.5672 9.37217 10.1735 9.23696 9.50138 9.20612C8.16223 9.1425 6.22015 9.52127 5.16655 10.0503C4.64122 10.3152 4.44947 10.565 4.5305 10.7609L5.22891 12.1902C5.32333 12.3842 5.71706 12.5194 6.38651 12.5506C7.72833 12.6138 9.67041 12.2351 10.7213 11.7064C11.2493 11.4411 11.4545 11.1895 11.3601 10.9954L10.6616 9.56619Z" fill="#44BFDB"/>
<path opacity="0.7" d="M10.6616 9.56619C10.5672 9.37217 10.1735 9.23696 9.50138 9.20612C8.16223 9.1425 6.22015 9.52127 5.16655 10.0503C4.64122 10.3152 4.44947 10.565 4.5305 10.7609L5.22891 12.1902C5.32333 12.3842 5.71706 12.5194 6.38651 12.5506C7.72833 12.6138 9.67041 12.2351 10.7213 11.7064C11.2493 11.4411 11.4545 11.1895 11.3601 10.9954L10.6616 9.56619Z" fill="white"/>
<path opacity="0.4" d="M10.5675 11.7735C10.6177 11.7505 10.6768 11.7299 10.7214 11.7065C10.8569 11.6386 10.979 11.5657 11.0858 11.489L10.0919 9.44664L9.49306 9.56309L10.5675 11.7735Z" fill="white"/>
<path opacity="0.4" d="M9.8372 12.0484C9.97661 12.0046 10.1121 11.9575 10.243 11.9075L9.19151 9.75208L8.7569 9.83642L9.8372 12.0484Z" fill="white"/>
<path d="M6.35108 12.0166C6.25169 11.8124 6.17664 11.6569 5.8094 10.9036L4.83746 10.2396C4.70844 10.3191 4.61338 10.4071 4.55896 10.4974C4.50454 10.5876 4.49207 10.6779 4.52243 10.762L5.22084 12.1913C5.31527 12.3853 5.70899 12.5205 6.37844 12.5517C7.72027 12.6149 9.66234 12.2362 10.7133 11.7075C10.8487 11.6396 10.9709 11.5667 11.0777 11.49C9.38636 12.339 6.56426 12.4534 6.35108 12.0166Z" fill="#44BFDB"/>
<path d="M5.1666 10.0491C4.11593 10.5789 4.3495 11.0589 5.69108 11.1209C7.03265 11.183 8.9723 10.8058 10.0256 10.2756C11.079 9.74537 10.843 9.26698 9.50143 9.20492C8.15985 9.14286 6.22045 9.52125 5.1666 10.0491Z" fill="#44BFDB"/>
<path opacity="0.8" d="M5.1666 10.0491C4.11593 10.5789 4.3495 11.0589 5.69108 11.1209C7.03265 11.183 8.9723 10.8058 10.0256 10.2756C11.079 9.74537 10.843 9.26698 9.50143 9.20492C8.15985 9.14286 6.22045 9.52125 5.1666 10.0491Z" fill="white"/>
<path d="M7.79712 8.28336C7.447 8.27655 7.07971 8.30903 6.72487 8.37819C6.37003 8.44734 6.03757 8.55123 5.75429 8.68147C5.64833 8.72649 5.56465 8.78134 5.51189 8.84035C5.45913 8.89937 5.43919 8.96042 5.45413 9.0172L6.15229 10.4453C6.19234 10.496 6.2636 10.5378 6.35898 10.5667C6.45437 10.5956 6.57055 10.6105 6.69596 10.6099C7.04647 10.617 7.41433 10.5846 7.76971 10.5153C8.1251 10.4461 8.45801 10.342 8.74146 10.2114C8.84689 10.1663 8.93002 10.1115 8.9823 10.0525C9.03458 9.99361 9.05413 9.9327 9.03894 9.87607L8.34347 8.44761C8.30291 8.3969 8.23115 8.35506 8.13531 8.32625C8.03947 8.29743 7.92288 8.28265 7.79712 8.28336Z" fill="#44BFDB"/>
<path opacity="0.7" d="M7.79712 8.28336C7.447 8.27655 7.07971 8.30903 6.72487 8.37819C6.37003 8.44734 6.03757 8.55123 5.75429 8.68147C5.64833 8.72649 5.56465 8.78134 5.51189 8.84035C5.45913 8.89937 5.43919 8.96042 5.45413 9.0172L6.15229 10.4453C6.19234 10.496 6.2636 10.5378 6.35898 10.5667C6.45437 10.5956 6.57055 10.6105 6.69596 10.6099C7.04647 10.617 7.41433 10.5846 7.76971 10.5153C8.1251 10.4461 8.45801 10.342 8.74146 10.2114C8.84689 10.1663 8.93002 10.1115 8.9823 10.0525C9.03458 9.99361 9.05413 9.9327 9.03894 9.87607L8.34347 8.44761C8.30291 8.3969 8.23115 8.35506 8.13531 8.32625C8.03947 8.29743 7.92288 8.28265 7.79712 8.28336Z" fill="white"/>
<path opacity="0.4" d="M8.3739 10.3637C8.50635 10.3209 8.63019 10.2717 8.74261 10.2172C8.76492 10.2055 8.77921 10.195 8.80127 10.1821L8.02845 8.61301L7.55954 8.7047L8.3739 10.3637Z" fill="white"/>
<path opacity="0.4" d="M7.77081 10.5244C7.88489 10.5015 7.99732 10.4756 8.10748 10.4469L7.33325 8.85857L6.99161 8.9259L7.77081 10.5244Z" fill="white"/>
<path d="M8.9601 10.0731C8.74831 10.194 8.47722 10.2914 8.17924 10.3536C7.88127 10.4158 7.56901 10.4403 7.27982 10.424C6.71877 10.3832 6.68363 10.2208 6.57456 9.97178C6.4655 9.72281 6.26747 9.34337 6.03021 8.8591L5.61352 8.7709C5.54999 8.809 5.50287 8.85138 5.47554 8.89498C5.44821 8.93858 5.44134 8.98232 5.45544 9.02307L6.15359 10.4511C6.19364 10.5018 6.2649 10.5437 6.36029 10.5726C6.45567 10.6015 6.57185 10.6164 6.69726 10.6158C7.04778 10.6228 7.41563 10.5904 7.77102 10.5212C8.1264 10.452 8.45931 10.3478 8.74276 10.2173C8.82978 10.1735 8.90322 10.1247 8.9601 10.0731Z" fill="#44BFDB"/>
<path d="M5.7542 8.68146C5.25603 8.93155 5.36829 9.15699 6.00165 9.18733C6.35189 9.19424 6.71939 9.16168 7.0743 9.0923C7.42922 9.02292 7.76152 8.91868 8.04422 8.78805C8.54264 8.53914 8.43013 8.31251 7.79702 8.28335C7.4469 8.27654 7.07961 8.30902 6.72477 8.37818C6.36993 8.44733 6.03747 8.55122 5.7542 8.68146Z" fill="#44BFDB"/>
<path opacity="0.8" d="M5.7542 8.68146C5.25603 8.93155 5.36829 9.15699 6.00165 9.18733C6.35189 9.19424 6.71939 9.16168 7.0743 9.0923C7.42922 9.02292 7.76152 8.91868 8.04422 8.78805C8.54264 8.53914 8.43013 8.31251 7.79702 8.28335C7.4469 8.27654 7.07961 8.30902 6.72477 8.37818C6.36993 8.44733 6.03747 8.55122 5.7542 8.68146Z" fill="white"/>
<path d="M6.66691 8.70072C6.61356 8.63712 6.57498 8.5699 6.5517 8.49997L6.20078 7.77103C6.05807 7.46862 5.88006 7.11787 5.70179 6.74044L5.17774 5.55564L4.17893 3.32463C4.04425 3.02106 3.92881 2.76815 3.85186 2.59104C3.81057 2.50228 3.77897 2.43277 3.75782 2.38604C3.73667 2.3393 3.74127 2.3095 3.76244 2.30525C3.78119 2.30255 3.81331 2.32343 3.83714 2.36978C3.86097 2.41612 3.89742 2.48251 3.94457 2.57285C4.03491 2.74804 4.16885 2.99708 4.32469 3.29639C4.64174 3.89423 5.06277 4.69201 5.48406 5.49096C5.69177 5.88965 5.89973 6.28951 6.09674 6.66424C6.29375 7.03897 6.45812 7.39046 6.59547 7.69364C6.73283 7.99683 6.86944 8.24548 6.95711 8.42105C7.00013 8.48699 7.02804 8.55616 7.04043 8.62759C7.02116 8.64292 6.99618 8.65699 6.96694 8.66897C6.9377 8.68096 6.90477 8.69063 6.87006 8.69742C6.83534 8.70422 6.79951 8.70801 6.76465 8.70858C6.72978 8.70914 6.69657 8.70647 6.66691 8.70072Z" fill="#455A64"/>
<path opacity="0.5" d="M11.7223 10.0778C13.6315 10.2622 13.3547 10.9867 11.8605 11.726C10.3664 12.4652 7.2945 13.0332 6.17884 13.0964C8.26568 12.9785 10.8038 12.4194 12.3041 11.7083C14.0171 10.8963 13.739 10.1848 11.7223 10.0778Z" fill="white"/>
<path d="M20.2229 27.9739C18.034 28.8713 14.6421 29.4792 12.2185 29.3675C10.9785 29.303 10.2212 29.0695 9.95962 28.7284L9.94088 28.731L2.16345 12.7875C2.35255 13.1767 3.13489 13.449 4.48182 13.5103L11.641 28.1783C12.0346 28.9897 15.1006 29.3647 20.2229 27.9739Z" fill="#44BFDB"/>
<path opacity="0.3" d="M7.31476 13.3824C9.46758 13.1227 11.7172 12.5443 13.1517 11.8233C15.256 10.7644 14.7889 9.80453 12.1057 9.68041C11.8666 9.66814 11.6229 9.66264 11.3759 9.66393C12.7805 9.68537 14.3407 10.0304 14.0391 10.8192C13.7375 11.608 11.2408 12.7803 7.31476 13.3824Z" fill="white"/>
<path opacity="0.4" d="M14.4227 10.3974L22.2028 26.3406L22.1841 26.3433C22.2787 26.7169 21.8635 27.1845 20.887 27.6746L20.7467 27.7409C22.2855 26.8507 21.717 26.3412 21.2927 25.4772L14.2544 11.0492C14.4555 10.8302 14.5143 10.6024 14.4227 10.3974Z" fill="white"/>
<path opacity="0.3" d="M9.50145 9.20617C9.46218 9.20332 9.41856 9.20595 9.37687 9.20466C10.0482 9.25746 10.7293 9.49582 10.2459 9.94167C9.76244 10.3875 7.56314 11.1857 5.07076 11.0499C5.26047 11.0908 5.46996 11.116 5.69161 11.1246C7.03318 11.1866 8.97284 10.8094 10.0262 10.2792C11.0795 9.74897 10.843 9.26823 9.50145 9.20617Z" fill="white"/>
<path opacity="0.3" d="M7.7973 8.28332C7.66155 8.27845 7.52128 8.28149 7.37956 8.29239C7.79934 8.29274 8.25951 8.39047 8.14799 8.58982C8.05255 8.76136 7.27086 9.16875 5.89483 9.17721C5.92973 9.18145 5.96548 9.18482 6.00194 9.1873C6.35217 9.19421 6.71968 9.16164 7.07459 9.09226C7.4295 9.02289 7.76181 8.91864 8.04451 8.78801C8.54025 8.53949 8.43041 8.31248 7.7973 8.28332Z" fill="white"/>
<path opacity="0.4" d="M25.0408 36.2068C24.8428 36.1976 24.635 36.1947 24.4225 36.1949C28.4423 36.2179 27.3297 37.9427 24.0693 38.9542C20.7466 39.9843 17.1772 40.0519 16.1818 39.8927C16.5617 39.9716 16.978 40.021 17.4174 40.0392C20.1008 40.1645 23.9826 39.4085 26.0868 38.3497C28.1911 37.2908 27.7312 36.3262 25.0408 36.2068Z" fill="white"/>
</svg>
